<svg height="512pt" viewBox="0 -30 512 512" width="512pt" xmlns="http://www.w3.org/2000/svg"><path d="m376.332031 362.140625-18.003906 90.007813h-204.613281l-18.003906-90.007813 30.304687-30.003906h183.011719zm0 0" fill="#895d3c"/><path d="m376.332031 362.140625-18.003906 90.007813h-102.304687v-120.011719h93.003906zm0 0" fill="#714c2f"/><path d="m391.332031 287.132812-15 75.007813h-240.621093l-15-75.007813zm0 0" fill="#714c2f"/><path d="m391.332031 287.132812-15 75.007813h-120.308593v-75.007813zm0 0" fill="#523522"/><path d="m225.8125 44.242188c-5.191406-11.53125-16.351562-21.414063-30.792969-24.644532-7.367187-1.652344-14.824219-1.449218-21.871093.542969-11.328126-9.769531-27.101563-13.289063-41.414063-9.242187-14.621094-12.554688-36.359375-14.722657-53.472656-3.882813-17.417969 11.074219-24.359375 31.730469-19.261719 50.058594-9.566406 11.054687-13.351562 26.78125-9.246094 41.414062-12.570312 14.648438-14.722656 36.359375-3.882812 53.457031 4.207031 6.636719 10.195312 11.878907 17.785156 15.585938l133.164062 3.019531 31.71875-23.820312zm0 0" fill="#ff641a"/><path d="m169.105469 124.417969c-5.15625-.644531-10.355469-.308594-15.367188.878906-7.53125-4.820313-16.730469-7.179687-25.476562-7.164063-9.054688.234376-17.8125 3.222657-25.09375 8.425782-8.820313-1.613282-18.019531-.558594-26.296875 3.132812-8.292969 3.679688-15.234375 9.789063-19.96875 17.390625-8.761719 1.90625-16.859375 6.386719-23.101563 12.949219-6.242187 6.5625-11.328125 14.871094-12.792969 23.691406-7.355468 5.109375-12.351562 12.347656-15.601562 20.800782l-5.40625 14.003906 214.429688 82.59375 11.023437-73.992188zm0 0" fill="#5bc980"/><path d="m459.917969 98.472656c3.996093-14.414062.511719-30.03125-9.230469-41.386718 5.074219-18.25-1.777344-38.953126-19.265625-50.070313-17.375-11.035156-39.097656-8.542969-53.515625 3.894531-14.355469-4.011718-30.003906-.496094-41.355469 9.246094-7.0625-2.007812-14.5625-2.214844-21.886719-.558594-21.726562 4.855469-27.375 20.136719-30.074218 23.160156l-2.769532 102.738282 61.6875 24.746094 104.132813-3.546876c6.8125-3.632812 12.261719-8.585937 16.171875-14.738281 10.855469-17.109375 8.6875-38.847656-3.894531-53.484375zm0 0" fill="#f03800"/><path d="m506.59375 204.523438c-3.25-8.453126-10.023438-15.691407-17.378906-20.804688-1.464844-8.816406-5.550782-17.125-11.792969-23.6875-6.238281-6.5625-14.339844-11.046875-23.101563-12.949219-4.730468-7.605469-11.675781-13.714843-19.96875-17.390625-8.277343-3.664062-17.476562-4.6875-26.296874-3.136718-7.277344-5.199219-16.039063-8.1875-25.121094-8.421876-8.9375.027344-17.917969 2.355469-25.449219 7.164063-4.628906-1.070313-9.449219-1.464844-14.179687-1.011719l-53.78125 90.402344 7.269531 86.433594 215.207031-82.59375zm0 0" fill="#00ab5e"/><path d="m356.53125 126.019531c3 8.699219 4.5 17.402344 4.5 26.101563 0 33.601562-44.101562 96.90625-81.308594 144.3125h-47.402344c-37.203124-47.40625-81.308593-110.710938-81.308593-144.3125 0-8.699219 1.5-17.402344 4.503906-26.101563-3.003906-6-4.503906-12.304687-4.503906-18.902343 0-20.402344 13.503906-37.503907 31.804687-43.203126 4.5-14.101562 15.902344-25.503906 30-30.003906 5.703125-18.300781 22.804688-31.800781 43.207032-31.800781 20.398437 0 37.5 13.5 43.203124 31.800781 14.097657 4.5 25.5 15.902344 30 30.003906 18.304688 5.699219 31.804688 22.800782 31.804688 43.203126 0 6.597656-1.5 12.898437-4.5 18.902343zm0 0" fill="#7fe881"/><path d="m279.722656 296.433594h-23.699218v-294.324219c20.398437 0 37.5 13.5 43.203124 31.800781 14.097657 4.5 25.5 15.902344 30 30.003906 18.304688 5.699219 31.804688 22.800782 31.804688 43.203126 0 6.597656-1.5 12.902343-4.5 18.902343 3 8.699219 4.5 17.402344 4.5 26.101563 0 33.601562-44.101562 96.90625-81.308594 144.3125zm0 0" fill="#5bc980"/><path d="m241.019531 92.117188h30.003907v195.015624h-30.003907zm0 0" fill="#5bc980"/><path d="m256.023438 92.117188h15v195.015624h-15zm0 0" fill="#00ab5e"/><path d="m91.007812 272.132812h330.027344v30h-330.027344zm0 0" fill="#895d3c"/><path d="m256.023438 272.132812h165.011718v30h-165.011718zm0 0" fill="#714c2f"/></svg>