<svg height="511pt" viewBox="0 -81 511.99963 511" width="511pt" xmlns="http://www.w3.org/2000/svg"><path d="m86.90625 132.453125-3.570312 39.253906h-4.109376c-21.875 0-39.609374 17.734375-39.609374 39.609375 0 20.839844 16.097656 37.917969 36.53125 39.492188l-3.585938 39.453125c-40.632812-3.378907-72.5625-37.4375-72.5625-78.945313 0-43.75 35.476562-79.226562 79.226562-79.226562 2.585938 0 5.152344.125 7.679688.363281zm0 0" fill="#72c008"/><path d="m73.546875 250.808594-3.585937 39.453125c-9.402344-.78125-18.328126-3.203125-26.507813-6.980469l4.101563-45.0625c6.578124 7.105469 15.738281 11.796875 25.992187 12.589844zm0 0" fill="#64a308"/><path d="m86.90625 132.453125-3.570312 39.253906h-4.109376c-8.917968 0-17.136718 2.941407-23.75 7.90625l4.085938-45.0625c6.292969-1.605469 12.875-2.460937 19.664062-2.460937 2.585938 0 5.152344.125 7.679688.363281zm0 0" fill="#64a308"/><path d="m322.789062 171.984375 133.828126-99.300781 18.882812 24.3125-144.480469 165.59375zm0 0" fill="#72c008"/><path d="m356.6875 233.160156-25.671875 29.425782-8.230469-90.597657 26.558594-19.703125zm0 0" fill="#64a308"/><path d="m298.996094 49.667969h-190.324219v-21.703125c0-15.167969 12.296875-27.464844 27.464844-27.464844h135.394531c15.167969 0 27.464844 12.296875 27.464844 27.464844zm0 0" fill="#72c008"/><path d="m298.992188 27.964844v21.707031h-27.933594v-21.707031c0-15.167969-12.300782-27.464844-27.46875-27.464844h27.9375c15.175781 0 27.464844 12.296875 27.464844 27.464844zm0 0" fill="#64a308"/><path d="m337.886719 103.03125h-268.105469c-8.476562 0-15.351562-6.875-15.351562-15.351562v-29.996094c0-8.480469 6.875-15.351563 15.351562-15.351563h268.105469c8.480469 0 15.351562 6.871094 15.351562 15.351563v29.996094c0 8.476562-6.871093 15.351562-15.351562 15.351562zm0 0" fill="#fec608"/><path d="m320.699219 103.03125h-233.726563l-19.144531 210.738281c-1.636719 19.523438 13.765625 36.269531 33.359375 36.269531h205.296875c19.589844 0 34.992187-16.75 33.355469-36.269531zm0 0" fill="#a6e165"/><path d="m306.480469 350.042969h-205.289063c-17.453125 0-31.585937-13.300781-33.308594-30.011719.867188.066406 1.730469.09375 2.609376.09375h205.289062c19.601562 0 35-16.75 33.363281-36.277344l-16.421875-180.820312h27.976563l19.144531 210.738281c1.636719 19.527344-13.769531 36.277344-33.363281 36.277344zm0 0" fill="#72c008"/><path d="m462.796875 38.195312c-5.199219-6.109374-15.195313-4.074218-17.425781 3.625-4.808594 16.585938-.949219 35.085938 11.28125 49.457032 11.824218 13.890625 29.226562 20.234375 46.097656 18.535156 8.1875-.824219 12.152344-10.410156 6.820312-16.675781zm0 0" fill="#9395a3"/></svg>