<svg height="511pt" viewBox="-116 1 511 511.9995" width="511pt" xmlns="http://www.w3.org/2000/svg"><path d="m43.320312 283.535156s-40.703124-111.320312-21.90625-229.191406c1.449219-9.074219 13.25-11.730469 18.464844-4.167969 21.152344 30.675781 59.730469 102.832031 71.960938 233.359375zm0 0" fill="#a6e165"/><path d="m237.539062 283.535156s40.707032-111.320312 21.90625-229.191406c-1.445312-9.074219-13.246093-11.730469-18.460937-4.167969-21.152344 30.675781-59.734375 102.832031-71.964844 233.359375zm0 0" fill="#a6e165"/><path d="m111.835938 283.53125h-68.519532s-2.480468-6.773438-5.925781-18.75h24.128906c8.597657 0 15.316407-7.480469 14.339844-16.023438-10.695313-93.671874-35.015625-155.316406-54.832031-191.914062.125-.832031.25-1.667969.382812-2.5 1.449219-9.070312 13.25-11.726562 18.46875-4.167969 21.15625 30.679688 59.730469 102.835938 71.957032 233.355469zm0 0" fill="#72c008"/><path d="m237.542969 283.53125h-68.519531c.59375-6.386719 1.261718-12.648438 1.980468-18.75h27.503906c10.53125 0 19.804688-6.933594 22.761719-17.042969 9.777344-33.449219 28.453125-111.816406 18.679688-196.050781.34375-.507812.6875-1.019531 1.03125-1.507812 5.21875-7.5625 17.023437-4.90625 18.46875 4.164062 18.792969 117.863281-21.90625 229.1875-21.90625 229.1875zm0 0" fill="#72c008"/><path d="m260.511719 342.964844h-240.164063s-2.9375 80.5 28.59375 145.851562c4.820313 9.988282 14.9375 16.226563 25.910156 16.226563h131.160157c10.96875 0 21.089843-6.238281 25.910156-16.226563 31.53125-65.351562 28.589844-145.851562 28.589844-145.851562zm0 0" fill="#d1956c"/><path d="m231.917969 488.820312c-4.820313 9.988282-14.933594 16.226563-25.902344 16.226563h-131.167969c-10.96875 0-21.082031-6.238281-25.90625-16.226563-1.75-3.617187-3.382812-7.28125-4.925781-10.980468 3.445313 1.4375 7.195313 2.207031 11.0625 2.207031h131.152344c10.96875 0 21.09375-6.238281 25.917969-16.226563 20.601562-42.71875 19.53125-91.90625 21.132812-120.855468h27.230469s2.9375 80.5-28.59375 145.855468zm0 0" fill="#b57756"/><path d="m131.039062 5.710938c-53.109374 103.5625-21.265624 277.824218-21.265624 277.824218h61.273437s31.847656-174.261718-21.261719-277.824218c-3.90625-7.613282-14.84375-7.613282-18.746094 0zm0 0" fill="#72c008"/><path d="m171.050781 283.53125h-61.28125s-1.605469-8.792969-3.5-23.613281h15.3125c11.523438 0 21.261719-8.53125 22.78125-19.953125 5.871094-44.089844 15.796875-152.328125-13.71875-233.472656.136719-.261719.261719-.523438.394531-.78125 3.898438-7.613282 14.84375-7.613282 18.742188 0 53.113281 103.5625 21.269531 277.820312 21.269531 277.820312zm0 0" fill="#64a308"/><path d="m231.808594 465.277344c-23.320313 0-23.320313-20.832032-46.640625-20.832032-22.667969 0-23.308594 19.675782-44.738281 20.777344-21.429688-1.105468-22.070313-20.777344-44.738282-20.777344-23.320312 0-23.320312 20.832032-46.640625 20.832032-18.460937 0-22.308593-13.054688-34.679687-18.496094-5.269532-2.316406-10.925782 2.464844-9.710938 8.09375l9.652344 44.691406c1.566406 7.253906 7.976562 12.429688 15.398438 12.429688h221.4375c7.417968 0 13.832031-5.175782 15.398437-12.429688l9.648437-44.6875c1.242188-5.753906-4.613281-10.410156-9.980468-7.976562-12.15625 5.507812-16.078125 18.375-34.40625 18.375zm0 0" fill="#fec608"/><path d="m276.199219 454.886719-9.65625 44.675781c-1.5625 7.261719-7.976563 12.4375-15.394531 12.4375h-221.4375c-7.414063 0-13.832032-5.175781-15.394532-12.4375l-1.488281-6.886719h221.152344c7.417969 0 13.832031-5.175781 15.394531-12.425781l5.417969-25.09375c3.449219-3.074219 6.855469-6.1875 11.429687-8.25 5.363282-2.4375 11.21875 2.21875 9.976563 7.980469zm0 0" fill="#fca630"/><path d="m267.363281 349.917969h-253.863281c-7.179688 0-13-5.820313-13-13v-46.632813c0-7.175781 5.820312-12.996094 13-12.996094h253.863281c7.179688 0 13 5.820313 13 12.996094v46.632813c0 7.179687-5.820312 13-13 13zm0 0" fill="#b2693f"/></svg>