<svg height="481pt" viewBox="0 -10 481.45819 481" width="481pt" xmlns="http://www.w3.org/2000/svg"><path d="m4.917969 457.195312c112.054687 16.320313 148.742187-25.511718 148.742187-25.511718l-.191406-.1875c1.734375-1.523438 3.429688-3.125 5.070312-4.808594 34.226563-35.0625 33.640626-91.261719-1.3125-125.519531-34.953124-34.261719-91.03125-33.609375-125.257812 1.453125-1.640625 1.679687-3.203125 3.414062-4.6875 5.1875l-.191406-.1875c0-.003906-40.925782 37.675781-22.171875 149.574218zm0 0" fill="#ccc033"/><path d="m57.089844 337.617188.191406.191406c1.484375-1.777344 3.042969-3.507813 4.6875-5.191406 29.339844-30.058594 74.730469-34.800782 109.113281-13.964844-3.777343-6.253906-8.398437-12.140625-13.851562-17.488282-34.953125-34.257812-91.035157-33.609374-125.257813 1.453126-1.644531 1.683593-3.207031 3.417968-4.6875 5.191406l-.195312-.191406s-40.925782 37.679687-22.167969 149.578124c9.332031 1.359376 18.132813 2.308594 26.441406 2.917969-8.492187-90.96875 25.726563-122.496093 25.726563-122.496093zm0 0" fill="#99af17"/><path d="m74.652344 393.15625c-1.894532 0-3.792969-.710938-5.253906-2.148438-2.957032-2.898437-3-7.648437-.09375-10.605468l80.90625-82.402344c2.898437-2.957031 7.648437-3 10.605468-.097656 2.953125 2.902344 3 7.648437.09375 10.605468l-80.90625 82.402344c-1.46875 1.496094-3.40625 2.246094-5.351562 2.246094zm0 0" fill="#fcda4f"/><path d="m477.679688 455.429688c16.320312-112.050782-25.511719-148.742188-25.511719-148.742188l-.1875.195312c-1.527344-1.738281-3.128907-3.433593-4.808594-5.074218-35.0625-34.226563-91.261719-33.640625-125.519531 1.3125-34.261719 34.953125-33.613282 91.03125 1.449218 125.257812 1.683594 1.640625 3.417969 3.203125 5.191407 4.6875l-.191407.191406s37.679688 40.925782 149.578126 22.171876zm0 0" fill="#eacf32"/><path d="m388.101562 433.257812.1875-.191406c-1.773437-1.484375-3.507812-3.042968-5.1875-4.6875-35.0625-34.226562-35.710937-90.304687-1.453124-125.257812 9.691406-9.886719 21.140624-17.019532 33.367187-21.394532-31.640625-11.300781-68.347656-4.128906-93.367187 21.394532-34.257813 34.953125-33.609376 91.03125 1.453124 125.257812 1.683594 1.640625 3.414063 3.203125 5.1875 4.6875l-.1875.191406s32.289063 35.054688 125.820313 25.402344c-47.875-5.921875-65.820313-25.402344-65.820313-25.402344zm0 0" fill="#ccc033"/><path d="m406.144531 393.195312c-1.898437 0-3.796875-.714843-5.253906-2.148437l-82.40625-80.90625c-2.957031-2.902344-3-7.648437-.09375-10.605469 2.902344-2.957031 7.648437-2.996094 10.605469-.097656l82.402344 80.90625c2.957031 2.902344 3 7.648438.097656 10.605469-1.472656 1.496093-3.410156 2.246093-5.351563 2.246093zm0 0" fill="#fcda4f"/><path d="m423.082031 201.996094c0 99.414062-80.589843 180-180 180-99.414062 0-180-80.585938-180-180 0-99.410156 80.585938-180 180-180 99.410157 0 180 80.589844 180 180zm0 0" fill="#ff9079"/><g fill="#ff624b"><path d="m123.082031 201.996094c0-89.1875 64.867188-163.210938 150-177.496094-9.757812-1.636719-19.777343-2.503906-30-2.503906-99.414062 0-180 80.589844-180 180 0 99.414062 80.585938 180 180 180 10.222657 0 20.242188-.863282 30-2.5-85.132812-14.285156-150-88.3125-150-177.5zm0 0"/><path d="m104.875 184.074219c29.789062-16.738281 28.730469-30.554688 28.730469-30.554688h-.089844c.054687-.574219.082031-1.152343.078125-1.738281-.078125-12.191406-13.097656-22.015625-29.074219-21.949219-15.980469.070313-28.867187 10.003907-28.785156 22.195313.003906.582031.035156 1.164062.097656 1.734375h-.089843s-.875 13.828125 29.132812 30.3125zm0 0"/><path d="m104.507812 182.332031c-29.789062 16.742188-28.734374 30.558594-28.734374 30.558594h.089843c-.050781.574219-.082031 1.152344-.078125 1.738281.082032 12.1875 13.101563 22.015625 29.078125 21.945313 15.976563-.066407 28.867188-10.003907 28.785157-22.191407-.003907-.582031-.039063-1.164062-.097657-1.738281h.089844s.875-13.824219-29.132813-30.3125zm0 0"/><path d="m103.820312 183.386719c16.742188 29.789062 30.558594 28.734375 30.558594 28.734375v-.089844c.570313.050781 1.152344.082031 1.734375.078125 12.191407-.082031 22.019531-13.101563 21.949219-29.078125-.066406-15.976562-10.003906-28.867188-22.191406-28.785156-.585938.003906-1.164063.039062-1.738282.097656v-.089844c0 .003906-13.824218-.875-30.3125 29.132813zm0 0"/><path d="m105.5625 183.019531c-16.738281-29.789062-30.554688-28.730469-30.554688-28.730469v.089844c-.574218-.054687-1.15625-.082031-1.738281-.078125-12.191406.078125-22.015625 13.097657-21.949219 29.074219.070313 15.976562 10.003907 28.867188 22.191407 28.785156.585937-.003906 1.164062-.035156 1.738281-.097656v.089844s13.824219.878906 30.3125-29.132813zm0 0"/></g><path d="m93.742188 153.761719h.089843c-.0625-.570313-.09375-1.148438-.097656-1.734375-.066406-9.835938 8.3125-18.199219 19.941406-21.101563-2.878906-.714843-5.957031-1.105469-9.15625-1.09375-15.976562.070313-28.863281 10.003907-28.785156 22.195313.003906.582031.039063 1.164062.101563 1.734375h-.089844s-.878906 13.828125 29.132812 30.3125c3.347656-1.878907 6.289063-3.726563 8.90625-5.515625-20.710937-13.941406-20.042968-24.796875-20.042968-24.796875zm0 0" fill="#ff4b34"/><path d="m134.132812 172.257812v.085938c.570313-.058594 1.148438-.09375 1.734376-.097656 9.835937-.066406 18.199218 8.3125 21.101562 19.941406.71875-2.878906 1.109375-5.957031 1.09375-9.152344-.066406-15.980468-10.003906-28.867187-22.191406-28.789062-.585938.003906-1.164063.039062-1.738282.097656v-.085938s-13.824218-.878906-30.3125 29.128907c1.882813 3.351562 3.726563 6.292969 5.519532 8.910156 13.9375-20.710937 24.792968-20.039063 24.792968-20.039063zm0 0" fill="#ff4b34"/><path d="m96.785156 214.628906c-.003906-.585937.023438-1.164062.078125-1.738281h-.089843s-.777344-10.359375 18.335937-24c-3.019531-2.121094-6.515625-4.3125-10.601563-6.558594-29.792968 16.738281-28.734374 30.554688-28.734374 30.554688h.089843c-.054687.574219-.082031 1.15625-.078125 1.738281.082032 12.1875 13.101563 22.015625 29.078125 21.949219 3.648438-.015625 7.132813-.550781 10.339844-1.503907-10.726563-3.191406-18.355469-11.121093-18.417969-20.441406zm0 0" fill="#ff4b34"/><path d="m66.320312 183.375c-.054687-12.695312 6.144532-23.515625 14.804688-27.46875-3.835938-1.792969-6.121094-1.617188-6.121094-1.617188v.085938c-.574218-.054688-1.152344-.082031-1.738281-.078125-12.1875.082031-22.015625 13.097656-21.945313 29.078125.066407 15.976562 10.003907 28.863281 22.191407 28.785156.585937-.003906 1.164062-.039062 1.738281-.101562v.089844s2.199219.132812 5.886719-1.597657c-8.582031-3.917969-14.765625-14.585937-14.816407-27.175781zm0 0" fill="#ff4b34"/><path d="m114.625 181.734375c0 5.523437-4.476562 10-10 10s-10-4.476563-10-10 4.476562-10 10-10 10 4.476563 10 10zm0 0" fill="#ffd551"/><path d="m133.738281 266.957031c29.789063-16.738281 28.730469-30.554687 28.730469-30.554687h-.089844c.054688-.574219.082032-1.15625.078125-1.738282-.078125-12.191406-13.097656-22.015624-29.074219-21.949218-15.980468.070312-28.867187 10.003906-28.789062 22.191406.003906.585938.039062 1.164062.101562 1.738281h-.089843s-.875 13.828125 29.132812 30.3125zm0 0" fill="#ff624b"/><path d="m133.367188 265.214844c-29.789063 16.742187-28.730469 30.554687-28.730469 30.554687h.089843c-.054687.574219-.082031 1.15625-.078124 1.738281.082031 12.191407 13.097656 22.019532 29.078124 21.949219 15.976563-.066406 28.863282-10.003906 28.785157-22.191406-.003907-.585937-.039063-1.164063-.101563-1.738281h.089844s.878906-13.824219-29.132812-30.3125zm0 0" fill="#ff624b"/><path d="m132.683594 266.269531c16.738281 29.789063 30.554687 28.730469 30.554687 28.730469v-.089844c.574219.054688 1.15625.082032 1.738281.078125 12.191407-.078125 22.015626-13.097656 21.949219-29.074219-.070312-15.980468-10.003906-28.867187-22.191406-28.785156-.585937.003906-1.164063.035156-1.738281.097656v-.089843c-.003906.003906-13.828125-.875-30.3125 29.132812zm0 0" fill="#ff624b"/><path d="m134.425781 265.902344c-16.742187-29.789063-30.558593-28.730469-30.558593-28.730469v.089844c-.570313-.054688-1.152344-.082031-1.734376-.078125-12.191406.078125-22.019531 13.097656-21.949218 29.074218.066406 15.980469 10.003906 28.867188 22.191406 28.789063.585938-.003906 1.164062-.039063 1.738281-.101563v.089844s13.824219.875 30.3125-29.132812zm0 0" fill="#ff624b"/><path d="m122.605469 236.644531h.089843c-.0625-.574219-.097656-1.152343-.101562-1.738281-.0625-9.832031 8.3125-18.195312 19.941406-21.097656-2.878906-.71875-5.957031-1.105469-9.152344-1.09375-15.976562.070312-28.867187 10.003906-28.785156 22.191406.003906.585938.039063 1.164062.097656 1.738281h-.089843s-.875 13.828125 29.132812 30.3125c3.351563-1.882812 6.292969-3.726562 8.910157-5.515625-20.714844-13.941406-20.042969-24.796875-20.042969-24.796875zm0 0" fill="#ff4b34"/><path d="m162.996094 255.140625v.085937c.574218-.0625 1.152344-.09375 1.738281-.097656 9.832031-.066406 18.195313 8.3125 21.097656 19.941406.71875-2.878906 1.109375-5.957031 1.09375-9.15625-.066406-15.976562-10.003906-28.863281-22.191406-28.785156-.582031.003906-1.164063.035156-1.738281.097656v-.085937s-13.824219-.878906-30.3125 29.128906c1.882812 3.351563 3.726562 6.292969 5.519531 8.90625 13.9375-20.707031 24.792969-20.035156 24.792969-20.035156zm0 0" fill="#ff4b34"/><path d="m125.648438 297.507812c-.003907-.582031.023437-1.164062.078124-1.738281h-.089843s-.777344-10.355469 18.335937-24c-3.023437-2.117187-6.519531-4.308593-10.605468-6.554687-29.789063 16.738281-28.730469 30.554687-28.730469 30.554687h.089843c-.054687.574219-.082031 1.152344-.078124 1.738281.082031 12.1875 13.097656 22.015626 29.078124 21.949219 3.648438-.015625 7.132813-.550781 10.339844-1.503906-10.726562-3.191406-18.355468-11.125-18.417968-20.445313zm0 0" fill="#ff4b34"/><path d="m95.183594 266.257812c-.054688-12.695312 6.140625-23.515624 14.804687-27.464843-3.835937-1.796875-6.121093-1.621094-6.121093-1.621094v.085937c-.574219-.050781-1.152344-.082031-1.738282-.078124-12.1875.082031-22.015625 13.101562-21.949218 29.078124.070312 15.976563 10.003906 28.867188 22.191406 28.785157.589844-.003907 1.164062-.039063 1.738281-.097657v.089844s2.203125.128906 5.886719-1.601562c-8.578125-3.921875-14.761719-14.585938-14.8125-27.175782zm0 0" fill="#ff4b34"/><path d="m143.488281 264.617188c0 5.519531-4.476562 10-10 10-5.523437 0-10-4.480469-10-10 0-5.523438 4.476563-10 10-10 5.523438 0 10 4.476562 10 10zm0 0" fill="#ffd551"/><path d="m233.910156 243.613281c29.789063-16.738281 28.734375-30.554687 28.734375-30.554687h-.089843c.054687-.574219.082031-1.15625.078124-1.738282-.078124-12.191406-13.097656-22.015624-29.074218-21.949218-15.980469.070312-28.867188 10.003906-28.789063 22.191406.003907.585938.039063 1.164062.101563 1.738281h-.089844c0 .003907-.878906 13.828125 29.128906 30.3125zm0 0" fill="#ff624b"/><path d="m233.546875 241.871094c-29.792969 16.742187-28.734375 30.554687-28.734375 30.554687h.089844c-.054688.574219-.082032 1.15625-.078125 1.738281.082031 12.191407 13.097656 22.015626 29.078125 21.949219 15.976562-.066406 28.863281-10.003906 28.785156-22.191406-.003906-.585937-.039062-1.164063-.101562-1.738281h.089843s.878907-13.824219-29.128906-30.3125zm0 0" fill="#ff624b"/><path d="m232.855469 242.925781c16.742187 29.792969 30.558593 28.734375 30.558593 28.734375v-.089844c.574219.054688 1.152344.082032 1.738282.078126 12.1875-.078126 22.015625-13.097657 21.945312-29.074219-.066406-15.980469-10.003906-28.867188-22.191406-28.785157-.582031.003907-1.164062.035157-1.738281.097657v-.089844s-13.824219-.878906-30.3125 29.128906zm0 0" fill="#ff624b"/><path d="m234.597656 242.558594c-16.738281-29.789063-30.554687-28.730469-30.554687-28.730469v.089844c-.574219-.054688-1.152344-.082031-1.738281-.078125-12.191407.078125-22.015626 13.097656-21.949219 29.074218.070312 15.980469 10.003906 28.867188 22.195312 28.789063.582031-.003906 1.164063-.039063 1.734375-.101563v.089844s13.828125.875 30.3125-29.132812zm0 0" fill="#ff624b"/><path d="m222.78125 213.300781h.089844c-.0625-.574219-.097656-1.152343-.101563-1.738281-.0625-9.832031 8.3125-18.195312 19.945313-21.097656-2.882813-.71875-5.960938-1.105469-9.15625-1.09375-15.976563.070312-28.867188 10.003906-28.785156 22.191406.003906.585938.039062 1.164062.097656 1.738281h-.089844s-.875 13.828125 29.132812 30.3125c3.351563-1.882812 6.292969-3.726562 8.910157-5.519531-20.714844-13.9375-20.042969-24.792969-20.042969-24.792969zm0 0" fill="#ff4b34"/><path d="m263.167969 231.796875v.085937c.574219-.0625 1.152343-.09375 1.738281-.097656 9.835938-.066406 18.195312 8.308594 21.101562 19.941406.71875-2.882812 1.105469-5.960937 1.09375-9.15625-.070312-15.976562-10.003906-28.863281-22.191406-28.785156-.585937.003906-1.164062.035156-1.738281.097656v-.085937s-13.828125-.878906-30.3125 29.128906c1.882813 3.351563 3.726563 6.292969 5.519531 8.90625 13.9375-20.707031 24.789063-20.035156 24.789063-20.035156zm0 0" fill="#ff4b34"/><path d="m225.824219 274.164062c-.003907-.582031.023437-1.164062.078125-1.738281h-.089844s-.777344-10.355469 18.335938-24c-3.019532-2.117187-6.515626-4.308593-10.601563-6.554687-29.792969 16.738281-28.734375 30.554687-28.734375 30.554687h.089844c-.054688.574219-.082032 1.152344-.078125 1.738281.082031 12.1875 13.097656 22.015626 29.078125 21.949219 3.648437-.019531 7.132812-.550781 10.339844-1.503906-10.726563-3.191406-18.355469-11.125-18.417969-20.445313zm0 0" fill="#ff4b34"/><path d="m195.355469 242.914062c-.050781-12.695312 6.144531-23.515624 14.804687-27.464843-3.832031-1.796875-6.121094-1.621094-6.121094-1.621094v.085937c-.570312-.050781-1.152343-.082031-1.734374-.078124-12.191407.082031-22.019532 13.097656-21.949219 29.078124.066406 15.976563 10.003906 28.867188 22.191406 28.785157.585937-.003907 1.164063-.039063 1.738281-.101563v.09375s2.199219.128906 5.886719-1.601562c-8.582031-3.917969-14.761719-14.585938-14.816406-27.175782zm0 0" fill="#ff4b34"/><path d="m243.660156 241.269531c0 5.523438-4.476562 10-10 10-5.523437 0-10-4.476562-10-10 0-5.519531 4.476563-10 10-10 5.523438 0 10 4.480469 10 10zm0 0" fill="#ffd551"/><path d="m152.484375 99.3125c29.789063-16.738281 28.730469-30.554688 28.730469-30.554688h-.089844c.054688-.574218.082031-1.15625.078125-1.738281-.082031-12.191406-13.097656-22.015625-29.074219-21.949219-15.980468.070313-28.867187 10.003907-28.789062 22.191407.003906.585937.039062 1.164062.101562 1.738281h-.089844s-.875 13.828125 29.132813 30.3125zm0 0" fill="#ff624b"/><path d="m152.113281 97.570312c-29.789062 16.742188-28.730469 30.558594-28.730469 30.558594h.089844c-.054687.574219-.082031 1.152344-.078125 1.738282.082031 12.1875 13.097657 22.015624 29.078125 21.945312 15.976563-.066406 28.863282-10.003906 28.785156-22.191406-.003906-.582032-.039062-1.164063-.101562-1.738282h.089844s.878906-13.824218-29.132813-30.3125zm0 0" fill="#ff624b"/><path d="m151.429688 98.625c16.738281 29.789062 30.554687 28.734375 30.554687 28.734375v-.09375c.574219.054687 1.15625.082031 1.738281.078125 12.191406-.078125 22.015625-13.097656 21.949219-29.074219-.070313-15.976562-10.003906-28.867187-22.191406-28.785156-.585938.003906-1.164063.035156-1.738281.097656v-.089843c-.003907 0-13.828126-.875-30.3125 29.132812zm0 0" fill="#ff624b"/><path d="m153.171875 98.257812c-16.742187-29.789062-30.558594-28.730468-30.558594-28.730468v.089844c-.574219-.054688-1.152343-.082032-1.734375-.078126-12.191406.078126-22.019531 13.097657-21.949218 29.074219.066406 15.976563 10.003906 28.867188 22.191406 28.785157.582031-.003907 1.164062-.035157 1.738281-.097657v.089844s13.824219.875 30.3125-29.132813zm0 0" fill="#ff624b"/><path d="m141.351562 69h.089844c-.0625-.574219-.097656-1.152344-.101562-1.738281-.0625-9.832031 8.3125-18.195313 19.941406-21.097657-2.878906-.714843-5.957031-1.105468-9.152344-1.09375-15.976562.070313-28.867187 10.003907-28.785156 22.191407.003906.585937.039062 1.164062.097656 1.738281h-.089844s-.875 13.828125 29.132813 30.3125c3.351563-1.882812 6.292969-3.726562 8.910156-5.515625-20.714843-13.941406-20.042969-24.796875-20.042969-24.796875zm0 0" fill="#ff4b34"/><path d="m181.738281 87.496094v.085937c.574219-.0625 1.152344-.09375 1.738281-.097656 9.835938-.066406 18.195313 8.3125 21.101563 19.941406.71875-2.878906 1.105469-5.957031 1.09375-9.15625-.070313-15.976562-10.003906-28.863281-22.191406-28.785156-.585938.003906-1.164063.035156-1.738281.097656v-.085937s-13.828126-.878906-30.3125 29.128906c1.882812 3.351562 3.726562 6.292969 5.515624 8.910156 13.941407-20.710937 24.792969-20.039062 24.792969-20.039062zm0 0" fill="#ff4b34"/><path d="m144.394531 129.867188c-.003906-.585938.023438-1.164063.078125-1.738282h-.089844s-.777343-10.359375 18.335938-24c-3.023438-2.121094-6.519531-4.3125-10.605469-6.558594-29.789062 16.738282-28.730469 30.554688-28.730469 30.554688h.089844c-.054687.574219-.082031 1.15625-.078125 1.738281.082031 12.1875 13.097657 22.015625 29.078125 21.949219 3.648438-.015625 7.132813-.550781 10.339844-1.503906-10.726562-3.191406-18.355469-11.125-18.417969-20.441406zm0 0" fill="#ff4b34"/><path d="m113.929688 98.613281c-.054688-12.695312 6.140624-23.515625 14.804687-27.46875-3.835937-1.792969-6.121094-1.617187-6.121094-1.617187v.085937c-.574219-.054687-1.152343-.082031-1.738281-.078125-12.1875.082032-22.015625 13.097656-21.949219 29.078125.070313 15.976563 10.003907 28.863281 22.191407 28.785157.585937-.003907 1.164062-.039063 1.738281-.101563v.089844s2.203125.132812 5.886719-1.597657c-8.578126-3.917968-14.761719-14.585937-14.8125-27.175781zm0 0" fill="#ff4b34"/><path d="m162.234375 96.972656c0 5.523438-4.480469 10-10 10-5.523437 0-10-4.476562-10-10 0-5.523437 4.476563-10 10-10 5.519531 0 10 4.476563 10 10zm0 0" fill="#ffd551"/><path d="m172.199219 185.546875c29.792969-16.742187 28.734375-30.558594 28.734375-30.558594h-.089844c.054688-.574219.082031-1.152343.078125-1.738281-.082031-12.1875-13.097656-22.015625-29.078125-21.945312-15.976562.066406-28.863281 10.003906-28.785156 22.191406.003906.582031.039062 1.164062.101562 1.738281h-.089844s-.878906 13.824219 29.128907 30.3125zm0 0" fill="#ff624b"/><path d="m171.832031 183.804688c-29.789062 16.738281-28.730469 30.554687-28.730469 30.554687h.089844c-.054687.574219-.082031 1.152344-.078125 1.738281.078125 12.191406 13.097657 22.015625 29.074219 21.949219 15.980469-.070313 28.867188-10.003906 28.789062-22.195313-.003906-.582031-.039062-1.160156-.101562-1.734374h.089844s.875-13.828126-29.132813-30.3125zm0 0" fill="#ff624b"/><path d="m171.144531 184.859375c16.742188 29.789063 30.554688 28.730469 30.554688 28.730469v-.089844c.574219.054688 1.15625.082031 1.738281.078125 12.191406-.082031 22.015625-13.097656 21.949219-29.078125-.066407-15.976562-10.003907-28.863281-22.191407-28.785156-.585937.003906-1.164062.039062-1.738281.101562v-.089844s-13.824219-.878906-30.3125 29.132813zm0 0" fill="#ff624b"/><path d="m172.886719 184.492188c-16.738281-29.789063-30.554688-28.734376-30.554688-28.734376v.089844c-.574219-.050781-1.15625-.082031-1.738281-.078125-12.191406.082031-22.015625 13.101563-21.949219 29.078125.070313 15.976563 10.003907 28.867188 22.191407 28.785156.585937-.003906 1.164062-.039062 1.738281-.097656v.089844c.003906-.003906 13.828125.875 30.3125-29.132812zm0 0" fill="#ff624b"/><path d="m161.070312 155.234375h.089844c-.0625-.574219-.097656-1.152344-.101562-1.738281-.0625-9.835938 8.3125-18.195313 19.941406-21.097656-2.878906-.71875-5.957031-1.109376-9.152344-1.09375-15.980468.066406-28.867187 10.003906-28.785156 22.191406.003906.582031.035156 1.164062.097656 1.738281h-.089844s-.878906 13.824219 29.128907 30.3125c3.351562-1.882813 6.292969-3.726563 8.910156-5.519531-20.710937-13.941406-20.039063-24.792969-20.039063-24.792969zm0 0" fill="#ff4b34"/><path d="m201.457031 173.726562v.089844c.574219-.0625 1.152344-.097656 1.738281-.101562 9.832032-.0625 18.195313 8.3125 21.101563 19.941406.714844-2.878906 1.105469-5.957031 1.09375-9.152344-.070313-15.976562-10.003906-28.867187-22.195313-28.789062-.582031.003906-1.164062.039062-1.734374.101562v-.089844s-13.828126-.878906-30.3125 29.132813c1.878906 3.347656 3.722656 6.289063 5.515624 8.90625 13.9375-20.710937 24.792969-20.039063 24.792969-20.039063zm0 0" fill="#ff4b34"/><path d="m164.113281 216.097656c-.003906-.585937.023438-1.164062.078125-1.738281h-.089844s-.777343-10.359375 18.335938-24c-3.023438-2.117187-6.519531-4.3125-10.605469-6.558594-29.792969 16.742188-28.730469 30.558594-28.730469 30.558594h.089844c-.054687.570313-.082031 1.152344-.078125 1.734375.078125 12.191406 13.097657 22.019531 29.074219 21.949219 3.652344-.015625 7.136719-.550781 10.34375-1.503907-10.726562-3.191406-18.359375-11.121093-18.417969-20.441406zm0 0" fill="#ff4b34"/><path d="m133.644531 184.847656c-.054687-12.695312 6.140625-23.515625 14.804688-27.46875-3.835938-1.792968-6.121094-1.621094-6.121094-1.621094v.089844c-.574219-.054687-1.152344-.082031-1.738281-.078125-12.1875.078125-22.015625 13.097657-21.945313 29.074219.066407 15.980469 10.003907 28.867188 22.191407 28.789062.585937-.003906 1.164062-.039062 1.738281-.101562v.089844s2.199219.132812 5.886719-1.597656c-8.578126-3.921876-14.761719-14.585938-14.816407-27.175782zm0 0" fill="#ff4b34"/><path d="m181.949219 183.203125c0 5.523437-4.476563 10-10 10-5.519531 0-10-4.476563-10-10s4.480469-10 10-10c5.523437 0 10 4.476563 10 10zm0 0" fill="#ffd551"/><path d="m240.582031 54.472656c29.789063-16.742187 28.734375-30.558594 28.734375-30.558594h-.089844c.050782-.574218.082032-1.152343.078126-1.738281-.082032-12.1875-13.101563-22.015625-29.078126-21.945312-15.976562.066406-28.867187 10.003906-28.785156 22.191406.003906.582031.039063 1.164063.097656 1.738281h-.089843s-.875 13.824219 29.132812 30.3125zm0 0" fill="#ff624b"/><path d="m240.214844 52.730469c-29.789063 16.738281-28.730469 30.554687-28.730469 30.554687h.089844c-.054688.574219-.082031 1.15625-.078125 1.738282.078125 12.191406 13.097656 22.015624 29.074218 21.949218 15.980469-.070312 28.867188-10.003906 28.785157-22.191406-.003907-.585938-.035157-1.164062-.097657-1.738281h.089844c0-.003907.875-13.828125-29.132812-30.3125zm0 0" fill="#ff624b"/><path d="m239.527344 53.785156c16.738281 29.789063 30.554687 28.730469 30.554687 28.730469v-.089844c.574219.054688 1.15625.082031 1.738281.078125 12.191407-.082031 22.015626-13.097656 21.949219-29.078125-.070312-15.976562-10.003906-28.863281-22.191406-28.785156-.585937.003906-1.164063.039063-1.738281.101563v-.089844s-13.824219-.875-30.3125 29.132812zm0 0" fill="#ff624b"/><path d="m241.269531 53.414062c-16.742187-29.789062-30.554687-28.730468-30.554687-28.730468v.089844c-.574219-.054688-1.15625-.082032-1.738282-.078126-12.191406.082032-22.015624 13.097657-21.949218 29.074219.066406 15.980469 10.003906 28.867188 22.191406 28.789063.585938-.003906 1.164062-.039063 1.738281-.101563v.089844c.003907 0 13.824219.878906 30.3125-29.132813zm0 0" fill="#ff624b"/><path d="m229.449219 24.160156h.089843c-.058593-.574218-.09375-1.152344-.097656-1.738281-.0625-9.835937 8.3125-18.195313 19.941406-21.097656-2.878906-.71875-5.957031-1.109375-9.152343-1.09375-15.980469.066406-28.867188 10.003906-28.789063 22.191406.003906.582031.039063 1.164063.101563 1.738281h-.089844s-.878906 13.824219 29.132813 30.3125c3.347656-1.882812 6.292968-3.726562 8.90625-5.519531-20.710938-13.941406-20.042969-24.792969-20.042969-24.792969zm0 0" fill="#ff4b34"/><path d="m269.839844 42.652344v.085937c.574218-.0625 1.152344-.09375 1.738281-.097656 9.832031-.066406 18.195313 8.3125 21.097656 19.941406.71875-2.878906 1.109375-5.957031 1.09375-9.15625-.066406-15.976562-10.003906-28.863281-22.191406-28.785156-.582031.003906-1.164063.035156-1.738281.097656v-.085937s-13.824219-.878906-30.3125 29.128906c1.882812 3.351562 3.726562 6.292969 5.519531 8.910156 13.9375-20.710937 24.792969-20.039062 24.792969-20.039062zm0 0" fill="#ff4b34"/><path d="m232.496094 85.023438c-.003906-.582032.019531-1.164063.078125-1.738282h-.089844s-.78125-10.359375 18.335937-24c-3.023437-2.117187-6.519531-4.3125-10.605468-6.558594-29.792969 16.742188-28.730469 30.558594-28.730469 30.558594h.089844c-.058594.574219-.082031 1.152344-.078125 1.734375.078125 12.191407 13.097656 22.019531 29.074218 21.949219 3.652344-.015625 7.132813-.550781 10.34375-1.503906-10.730468-3.1875-18.355468-11.121094-18.417968-20.441406zm0 0" fill="#ff4b34"/><path d="m202.027344 53.769531c-.054688-12.695312 6.140625-23.515625 14.804687-27.464843-3.835937-1.796876-6.121093-1.621094-6.121093-1.621094v.085937c-.574219-.050781-1.152344-.078125-1.738282-.074219-12.1875.078126-22.015625 13.097657-21.949218 29.074219.070312 15.976563 10.003906 28.867188 22.195312 28.785157.585938-.003907 1.164062-.039063 1.734375-.097657v.089844s2.203125.128906 5.886719-1.597656c-8.578125-3.921875-14.757813-14.585938-14.8125-27.179688zm0 0" fill="#ff4b34"/><path d="m250.332031 52.128906c0 5.523438-4.476562 10-10 10-5.523437 0-10-4.476562-10-10 0-5.523437 4.476563-10 10-10 5.523438 0 10 4.476563 10 10zm0 0" fill="#ffd551"/><path d="m249.378906 131.207031c29.789063-16.738281 28.730469-30.554687 28.730469-30.554687h-.089844c.054688-.574219.082031-1.15625.078125-1.738282-.082031-12.191406-13.097656-22.015624-29.078125-21.949218-15.976562.070312-28.863281 10.003906-28.785156 22.191406.003906.585938.039063 1.164062.101563 1.738281h-.089844s-.878906 13.828125 29.132812 30.3125zm0 0" fill="#ff624b"/><path d="m249.007812 129.464844c-29.789062 16.742187-28.730468 30.554687-28.730468 30.554687h.089844c-.054688.574219-.082032 1.15625-.078126 1.738281.078126 12.191407 13.097657 22.019532 29.074219 21.949219 15.980469-.066406 28.867188-10.003906 28.789063-22.191406-.003906-.585937-.039063-1.164063-.101563-1.738281h.089844s.878906-13.824219-29.132813-30.3125zm0 0" fill="#ff624b"/><path d="m248.320312 130.519531c16.742188 29.789063 30.558594 28.730469 30.558594 28.730469v-.089844c.570313.054688 1.152344.082032 1.734375.078125 12.191407-.078125 22.019531-13.097656 21.949219-29.074219-.066406-15.980468-10.003906-28.867187-22.191406-28.785156-.585938.003906-1.164063.035156-1.738282.097656v-.089843c0 .003906-13.824218-.875-30.3125 29.132812zm0 0" fill="#ff624b"/><path d="m250.066406 130.152344c-16.742187-29.789063-30.558594-28.730469-30.558594-28.730469v.089844c-.574218-.054688-1.152343-.082031-1.738281-.078125-12.1875.078125-22.015625 13.097656-21.945312 29.074218.066406 15.980469 10.003906 28.867188 22.191406 28.789063.582031-.003906 1.164063-.039063 1.738281-.101563v.089844s13.824219.875 30.3125-29.132812zm0 0" fill="#ff624b"/><path d="m238.246094 100.894531h.089844c-.0625-.574219-.097657-1.152343-.101563-1.738281-.0625-9.832031 8.3125-18.195312 19.941406-21.097656-2.878906-.71875-5.957031-1.105469-9.152343-1.09375-15.976563.070312-28.867188 10.003906-28.785157 22.191406.003907.585938.035157 1.164062.097657 1.738281h-.089844s-.878906 13.828125 29.132812 30.3125c3.351563-1.882812 6.292969-3.726562 8.90625-5.515625-20.710937-13.941406-20.039062-24.796875-20.039062-24.796875zm0 0" fill="#ff4b34"/><path d="m278.632812 119.390625v.085937c.574219-.0625 1.152344-.09375 1.738282-.097656 9.832031-.066406 18.195312 8.3125 21.101562 19.941406.714844-2.878906 1.105469-5.957031 1.09375-9.15625-.070312-15.976562-10.003906-28.863281-22.195312-28.785156-.582032.003906-1.160156.035156-1.734375.097656v-.085937s-13.828125-.878906-30.3125 29.128906c1.878906 3.351563 3.726562 6.292969 5.515625 8.90625 13.9375-20.707031 24.792968-20.035156 24.792968-20.035156zm0 0" fill="#ff4b34"/><path d="m241.289062 161.757812c-.003906-.582031.023438-1.164062.078126-1.738281h-.089844s-.777344-10.355469 18.335937-24c-3.023437-2.117187-6.519531-4.308593-10.605469-6.554687-29.789062 16.738281-28.730468 30.554687-28.730468 30.554687h.089844c-.054688.574219-.082032 1.152344-.078126 1.738281.078126 12.1875 13.097657 22.015626 29.074219 21.949219 3.652344-.015625 7.136719-.550781 10.34375-1.503906-10.726562-3.191406-18.355469-11.125-18.417969-20.445313zm0 0" fill="#ff4b34"/><path d="m210.820312 130.507812c-.054687-12.695312 6.144532-23.515624 14.804688-27.46875-3.835938-1.792968-6.121094-1.621093-6.121094-1.621093v.089843c-.574218-.054687-1.152344-.082031-1.738281-.078124-12.1875.078124-22.015625 13.097656-21.945313 29.074218.066407 15.980469 10.003907 28.867188 22.191407 28.789063.585937-.003907 1.164062-.039063 1.738281-.101563v.089844s2.199219.132812 5.886719-1.597656c-8.578125-3.921875-14.761719-14.585938-14.816407-27.175782zm0 0" fill="#ff4b34"/><path d="m259.128906 128.867188c0 5.519531-4.480468 10-10 10-5.523437 0-10-4.480469-10-10 0-5.523438 4.476563-10 10-10 5.519532 0 10 4.476562 10 10zm0 0" fill="#ffd551"/><path d="m299.226562 206.847656c29.789063-16.738281 28.730469-30.554687 28.730469-30.554687h-.089843c.054687-.574219.082031-1.15625.078124-1.738281-.082031-12.191407-13.097656-22.015626-29.078124-21.949219-15.976563.066406-28.863282 10.003906-28.785157 22.191406.003907.585937.039063 1.164063.101563 1.738281h-.089844s-.878906 13.828125 29.132812 30.3125zm0 0" fill="#ff624b"/><path d="m298.855469 205.105469c-29.789063 16.738281-28.730469 30.554687-28.730469 30.554687h.089844c-.054688.574219-.082032 1.15625-.078125 1.738282.082031 12.191406 13.097656 22.015624 29.078125 21.949218 15.976562-.066406 28.863281-10.003906 28.785156-22.191406-.003906-.585938-.039062-1.164062-.101562-1.738281h.089843c0-.003907.878907-13.828125-29.132812-30.3125zm0 0" fill="#ff624b"/><path d="m298.171875 206.160156c16.738281 29.789063 30.554687 28.730469 30.554687 28.730469v-.089844c.574219.054688 1.15625.082031 1.738282.078125 12.191406-.078125 22.015625-13.097656 21.949218-29.074218-.070312-15.980469-10.003906-28.867188-22.191406-28.789063-.585937.003906-1.164062.039063-1.738281.101563v-.089844c-.003906 0-13.828125-.875-30.3125 29.132812zm0 0" fill="#ff624b"/><path d="m299.914062 205.792969c-16.742187-29.792969-30.558593-28.734375-30.558593-28.734375v.089844c-.574219-.054688-1.152344-.082032-1.738281-.078126-12.1875.082032-22.015626 13.097657-21.945313 29.078126.066406 15.976562 10.003906 28.863281 22.191406 28.785156.582031-.003906 1.164063-.039063 1.738281-.101563v.089844s13.824219.878906 30.3125-29.128906zm0 0" fill="#ff624b"/><path d="m288.09375 176.535156h.089844c-.0625-.574218-.097656-1.152344-.101563-1.738281-.0625-9.832031 8.3125-18.195313 19.941407-21.097656-2.878907-.71875-5.957032-1.109375-9.152344-1.09375-15.976563.066406-28.867188 10.003906-28.785156 22.191406.003906.585937.035156 1.164063.097656 1.738281h-.089844s-.875 13.828125 29.132812 30.3125c3.351563-1.882812 6.292969-3.726562 8.910157-5.519531-20.714844-13.9375-20.042969-24.792969-20.042969-24.792969zm0 0" fill="#ff4b34"/><path d="m328.480469 195.027344v.089844c.574219-.0625 1.152343-.097657 1.738281-.101563 9.835938-.0625 18.195312 8.3125 21.101562 19.941406.714844-2.878906 1.105469-5.957031 1.09375-9.152343-.070312-15.980469-10.003906-28.867188-22.191406-28.789063-.585937.003906-1.164062.039063-1.738281.101563v-.089844s-13.828125-.878906-30.3125 29.128906c1.882813 3.351562 3.726563 6.292969 5.515625 8.910156 13.941406-20.707031 24.792969-20.039062 24.792969-20.039062zm0 0" fill="#ff4b34"/><path d="m291.136719 237.398438c-.003907-.582032.023437-1.164063.078125-1.738282h-.089844s-.777344-10.355468 18.335938-24c-3.023438-2.117187-6.519532-4.3125-10.605469-6.558594-29.789063 16.742188-28.730469 30.558594-28.730469 30.558594h.089844c-.054688.574219-.082032 1.152344-.078125 1.738282.082031 12.1875 13.097656 22.015624 29.078125 21.945312 3.648437-.015625 7.132812-.546875 10.339844-1.503906-10.726563-3.1875-18.355469-11.121094-18.417969-20.441406zm0 0" fill="#ff4b34"/><path d="m260.671875 206.148438c-.054687-12.695313 6.140625-23.515626 14.804687-27.46875-3.835937-1.792969-6.121093-1.621094-6.121093-1.621094v.089844c-.574219-.054688-1.15625-.082032-1.738281-.078126-12.1875.078126-22.015626 13.097657-21.949219 29.074219.070312 15.980469 10.003906 28.867188 22.191406 28.785157.585937-.003907 1.164063-.035157 1.738281-.097657v.089844s2.203125.132813 5.886719-1.597656c-8.578125-3.921875-14.761719-14.585938-14.8125-27.175781zm0 0" fill="#ff4b34"/><path d="m308.976562 204.503906c0 5.523438-4.480468 10-10 10-5.523437 0-10-4.476562-10-10 0-5.519531 4.476563-10 10-10 5.519532 0 10 4.480469 10 10zm0 0" fill="#ffd551"/><path d="m200.25 324.320312c29.789062-16.742187 28.730469-30.558593 28.730469-30.558593h-.089844c.054687-.570313.082031-1.152344.078125-1.734375-.078125-12.191406-13.097656-22.019532-29.074219-21.949219-15.980469.066406-28.867187 10.003906-28.789062 22.191406.003906.582031.039062 1.164063.101562 1.738281h-.089843s-.875 13.824219 29.132812 30.3125zm0 0" fill="#ff624b"/><path d="m199.882812 322.578125c-29.792968 16.738281-28.734374 30.554687-28.734374 30.554687h.089843c-.054687.574219-.082031 1.15625-.078125 1.738282.082032 12.191406 13.097656 22.015625 29.078125 21.949218 15.976563-.070312 28.863281-10.003906 28.785157-22.191406-.003907-.585937-.039063-1.164062-.101563-1.738281h.089844s.878906-13.828125-29.128907-30.3125zm0 0" fill="#ff624b"/><path d="m199.195312 323.632812c16.738282 29.789063 30.554688 28.730469 30.554688 28.730469v-.089843c.574219.054687 1.15625.082031 1.738281.078124 12.191407-.082031 22.015625-13.097656 21.949219-29.074218-.070312-15.980469-10.003906-28.867188-22.191406-28.789063-.585938.003907-1.164063.039063-1.738282.101563v-.089844c-.003906 0-13.828124-.875-30.3125 29.132812zm0 0" fill="#ff624b"/><path d="m200.9375 323.265625c-16.742188-29.789063-30.554688-28.730469-30.554688-28.730469v.089844c-.574218-.054688-1.15625-.082031-1.738281-.078125-12.191406.078125-22.015625 13.097656-21.949219 29.074219.066407 15.976562 10.003907 28.867187 22.191407 28.785156.585937-.003906 1.164062-.035156 1.738281-.097656v.089844c0-.003907 13.824219.875 30.3125-29.132813zm0 0" fill="#ff624b"/><path d="m189.117188 294.007812h.089843c-.0625-.574218-.097656-1.152343-.101562-1.738281-.0625-9.835937 8.3125-18.195312 19.945312-21.097656-2.882812-.71875-5.960937-1.109375-9.15625-1.09375-15.976562.066406-28.867187 10.003906-28.785156 22.191406.003906.582031.039063 1.164063.101563 1.738281h-.09375s-.875 13.824219 29.132812 30.3125c3.351562-1.882812 6.292969-3.726562 8.910156-5.519531-20.714844-13.9375-20.042968-24.792969-20.042968-24.792969zm0 0" fill="#ff4b34"/><path d="m229.503906 312.5v.089844c.574219-.0625 1.152344-.097656 1.738282-.101563 9.835937-.0625 18.195312 8.3125 21.101562 19.941407.71875-2.878907 1.105469-5.957032 1.09375-9.152344-.070312-15.976563-10.003906-28.867188-22.191406-28.789063-.585938.003907-1.164063.039063-1.738282.101563v-.089844s-13.828124-.875-30.3125 29.132812c1.882813 3.347657 3.726563 6.289063 5.519532 8.90625 13.9375-20.710937 24.789062-20.039062 24.789062-20.039062zm0 0" fill="#ff4b34"/><path d="m192.160156 354.871094c-.003906-.582032.023438-1.164063.078125-1.738282h-.089843s-.777344-10.355468 18.335937-24c-3.019531-2.117187-6.515625-4.3125-10.601563-6.558593-29.792968 16.742187-28.734374 30.558593-28.734374 30.558593h.089843c-.054687.574219-.082031 1.152344-.078125 1.738282.082032 12.1875 13.097656 22.015625 29.078125 21.945312 3.648438-.015625 7.132813-.550781 10.339844-1.503906-10.726563-3.1875-18.355469-11.121094-18.417969-20.441406zm0 0" fill="#ff4b34"/><path d="m161.695312 323.621094c-.054687-12.695313 6.140626-23.515625 14.804688-27.46875-3.835938-1.792969-6.121094-1.617188-6.121094-1.617188v.085938c-.574218-.054688-1.152344-.082032-1.738281-.078125-12.1875.082031-22.015625 13.097656-21.949219 29.078125.070313 15.976562 10.003906 28.863281 22.195313 28.785156.585937-.003906 1.164062-.039062 1.734375-.101562v.089843s2.203125.132813 5.886718-1.597656c-8.578124-3.917969-14.761718-14.585937-14.8125-27.175781zm0 0" fill="#ff4b34"/><path d="m210 321.976562c0 5.523438-4.476562 10-10 10s-10-4.476562-10-10c0-5.523437 4.476562-10 10-10s10 4.476563 10 10zm0 0" fill="#ffd551"/><path d="m293.082031 321.199219c29.789063-16.738281 28.734375-30.554688 28.734375-30.554688h-.089844c.050782-.574219.082032-1.15625.078126-1.738281-.082032-12.191406-13.101563-22.015625-29.078126-21.949219-15.976562.070313-28.867187 10.003907-28.785156 22.191407.003906.585937.039063 1.164062.097656 1.738281h-.089843s-.875 13.828125 29.132812 30.3125zm0 0" fill="#ff624b"/><path d="m292.714844 319.457031c-29.789063 16.742188-28.730469 30.554688-28.730469 30.554688h.089844c-.054688.574219-.082031 1.15625-.078125 1.738281.078125 12.191406 13.097656 22.015625 29.074218 21.949219 15.980469-.066407 28.867188-10.003907 28.785157-22.191407-.003907-.585937-.035157-1.164062-.097657-1.738281h.089844s.878906-13.824219-29.132812-30.3125zm0 0" fill="#ff624b"/><path d="m292.027344 320.511719c16.742187 29.789062 30.558594 28.730469 30.558594 28.730469v-.089844c.574218.054687 1.152343.082031 1.738281.078125 12.1875-.078125 22.015625-13.097657 21.945312-29.074219-.066406-15.980469-10.003906-28.867188-22.191406-28.785156-.582031.003906-1.164063.035156-1.738281.097656v-.085938s-13.824219-.878906-30.3125 29.128907zm0 0" fill="#ff624b"/><path d="m293.769531 320.144531c-16.738281-29.789062-30.554687-28.730469-30.554687-28.730469v.089844c-.574219-.054687-1.152344-.082031-1.738282-.078125-12.191406.078125-22.015624 13.097657-21.949218 29.074219.070312 15.980469 10.003906 28.867188 22.195312 28.789062.582032-.003906 1.164063-.039062 1.738282-.101562v.089844s13.820312.875 30.308593-29.132813zm0 0" fill="#ff624b"/><path d="m281.949219 290.886719h.089843c-.058593-.574219-.09375-1.152344-.097656-1.738281-.0625-9.832032 8.3125-18.195313 19.941406-21.097657-2.878906-.71875-5.957031-1.105469-9.152343-1.09375-15.980469.070313-28.867188 10.003907-28.789063 22.191407.003906.585937.039063 1.164062.101563 1.738281h-.089844s-.878906 13.828125 29.132813 30.3125c3.347656-1.882813 6.292968-3.726563 8.90625-5.519531-20.710938-13.9375-20.042969-24.792969-20.042969-24.792969zm0 0" fill="#ff4b34"/><path d="m322.339844 309.382812v.085938c.574218-.0625 1.152344-.09375 1.738281-.097656 9.832031-.066406 18.195313 8.308594 21.097656 19.941406.71875-2.882812 1.109375-5.960938 1.09375-9.15625-.066406-15.976562-10.003906-28.863281-22.191406-28.785156-.582031.003906-1.164063.035156-1.738281.097656v-.085938s-13.824219-.878906-30.3125 29.128907c1.882812 3.351562 3.726562 6.292969 5.519531 8.90625 13.941406-20.707031 24.792969-20.035157 24.792969-20.035157zm0 0" fill="#ff4b34"/><path d="m284.996094 351.75c-.003906-.582031.019531-1.164062.078125-1.738281h-.089844s-.78125-10.355469 18.335937-24c-3.023437-2.117188-6.519531-4.308594-10.605468-6.554688-29.792969 16.738281-28.730469 30.554688-28.730469 30.554688h.089844c-.058594.574219-.082031 1.152343-.078125 1.738281.078125 12.1875 13.097656 22.015625 29.074218 21.949219 3.652344-.019531 7.132813-.550781 10.34375-1.503907-10.730468-3.191406-18.355468-11.125-18.417968-20.445312zm0 0" fill="#ff4b34"/><path d="m254.527344 320.5c-.050782-12.695312 6.144531-23.515625 14.804687-27.464844-3.832031-1.796875-6.117187-1.621094-6.117187-1.621094v.085938c-.574219-.050781-1.15625-.082031-1.738282-.078125-12.191406.082031-22.015624 13.097656-21.949218 29.078125.066406 15.976562 10.003906 28.867188 22.191406 28.785156.585938-.003906 1.164062-.039062 1.738281-.101562v.09375s2.199219.128906 5.886719-1.601563c-8.582031-3.917969-14.761719-14.585937-14.816406-27.175781zm0 0" fill="#ff4b34"/><path d="m302.832031 318.859375c0 5.519531-4.476562 10-10 10-5.523437 0-10-4.480469-10-10 0-5.523437 4.476563-10 10-10 5.523438 0 10 4.476563 10 10zm0 0" fill="#ffd551"/><path d="m323.675781 87.839844c29.789063-16.738282 28.730469-30.554688 28.730469-30.554688h-.089844c.054688-.574218.082032-1.152344.078125-1.738281-.078125-12.1875-13.097656-22.015625-29.074219-21.949219-15.980468.070313-28.867187 10.003906-28.789062 22.195313.003906.582031.039062 1.164062.101562 1.738281h-.089843c.003906 0-.875 13.824219 29.132812 30.308594zm0 0" fill="#ff624b"/><path d="m323.308594 86.097656c-29.792969 16.742188-28.734375 30.558594-28.734375 30.558594h.089843c-.054687.574219-.082031 1.152344-.078124 1.738281.082031 12.1875 13.097656 22.015625 29.078124 21.945313 15.976563-.066406 28.863282-10.003906 28.785157-22.191406-.003907-.582032-.039063-1.164063-.101563-1.738282h.089844s.878906-13.824218-29.128906-30.3125zm0 0" fill="#ff624b"/><path d="m322.621094 87.15625c16.738281 29.789062 30.554687 28.730469 30.554687 28.730469v-.089844c.574219.054687 1.15625.082031 1.738281.078125 12.191407-.078125 22.015626-13.097656 21.949219-29.074219-.066406-15.980469-10.003906-28.867187-22.191406-28.789062-.585937.003906-1.164063.039062-1.738281.101562v-.089843c-.003906 0-13.828125-.878907-30.3125 29.132812zm0 0" fill="#ff624b"/><path d="m324.363281 86.789062c-16.742187-29.792968-30.554687-28.734374-30.554687-28.734374v.089843c-.574219-.054687-1.15625-.082031-1.738282-.078125-12.191406.082032-22.015624 13.097656-21.949218 29.078125.066406 15.976563 10.003906 28.863281 22.191406 28.785157.585938-.003907 1.164062-.039063 1.738281-.101563v.089844s13.828125.878906 30.3125-29.128907zm0 0" fill="#ff624b"/><path d="m312.542969 57.53125h.089843c-.0625-.574219-.097656-1.152344-.101562-1.738281-.0625-9.832031 8.3125-18.195313 19.945312-21.097657-2.882812-.71875-5.960937-1.109374-9.15625-1.09375-15.976562.066407-28.867187 10.003907-28.785156 22.191407.003906.585937.039063 1.164062.101563 1.738281h-.089844s-.878906 13.828125 29.128906 30.3125c3.351563-1.882812 6.292969-3.726562 8.910157-5.519531-20.714844-13.941407-20.042969-24.792969-20.042969-24.792969zm0 0" fill="#ff4b34"/><path d="m352.933594 76.023438v.089843c.574218-.0625 1.152344-.097656 1.738281-.101562 9.832031-.0625 18.195313 8.3125 21.097656 19.941406.71875-2.878906 1.109375-5.957031 1.09375-9.152344-.066406-15.980469-10.003906-28.867187-22.191406-28.789062-.582031.003906-1.164063.039062-1.738281.101562v-.089843s-13.824219-.878907-30.3125 29.128906c1.882812 3.351562 3.726562 6.292968 5.519531 8.910156 13.9375-20.710938 24.792969-20.039062 24.792969-20.039062zm0 0" fill="#ff4b34"/><path d="m315.585938 118.394531c-.003907-.582031.023437-1.164062.078124-1.738281h-.089843s-.777344-10.355469 18.335937-24c-3.019531-2.117188-6.515625-4.3125-10.601562-6.558594-29.792969 16.742188-28.734375 30.558594-28.734375 30.558594h.089843c-.054687.574219-.082031 1.152344-.078124 1.738281.082031 12.1875 13.097656 22.015625 29.078124 21.945313 3.648438-.015625 7.132813-.546875 10.339844-1.503906-10.726562-3.1875-18.355468-11.121094-18.417968-20.441407zm0 0" fill="#ff4b34"/><path d="m285.121094 87.144531c-.054688-12.695312 6.140625-23.515625 14.804687-27.46875-3.835937-1.792969-6.121093-1.621093-6.121093-1.621093v.089843c-.574219-.054687-1.152344-.082031-1.738282-.078125-12.1875.078125-22.015625 13.097656-21.949218 29.074219.070312 15.980469 10.003906 28.867187 22.195312 28.785156.585938-.003906 1.164062-.035156 1.738281-.097656v.089844s2.199219.132812 5.882813-1.597657c-8.578125-3.921874-14.761719-14.585937-14.8125-27.175781zm0 0" fill="#ff4b34"/><path d="m333.425781 85.5c0 5.523438-4.476562 10-10 10-5.523437 0-10-4.476562-10-10 0-5.519531 4.476563-10 10-10 5.523438 0 10 4.480469 10 10zm0 0" fill="#ffd551"/><path d="m369.828125 220.445312c29.789063-16.742187 28.734375-30.558593 28.734375-30.558593h-.089844c.050782-.574219.082032-1.152344.078125-1.738281-.082031-12.1875-13.101562-22.015626-29.078125-21.945313-15.976562.066406-28.867187 10.003906-28.785156 22.191406.003906.582031.039062 1.164063.097656 1.738281h-.089844c.003907 0-.875 13.824219 29.132813 30.3125zm0 0" fill="#ff624b"/><path d="m369.464844 218.699219c-29.792969 16.742187-28.734375 30.554687-28.734375 30.554687h.089843c-.054687.574219-.082031 1.15625-.078124 1.738282.082031 12.191406 13.097656 22.015624 29.078124 21.949218 15.976563-.066406 28.863282-10.003906 28.785157-22.191406-.003907-.585938-.039063-1.164062-.101563-1.738281h.089844s.878906-13.824219-29.128906-30.3125zm0 0" fill="#ff624b"/><path d="m368.773438 219.753906c16.742187 29.792969 30.558593 28.734375 30.558593 28.734375v-.089843c.574219.054687 1.152344.082031 1.738281.078124 12.1875-.082031 22.015626-13.097656 21.945313-29.078124-.066406-15.976563-10.003906-28.863282-22.191406-28.785157-.582031.003907-1.164063.039063-1.738281.101563v-.089844s-13.824219-.878906-30.3125 29.128906zm0 0" fill="#ff624b"/><path d="m370.515625 219.386719c-16.738281-29.789063-30.554687-28.730469-30.554687-28.730469v.089844c-.574219-.054688-1.152344-.082032-1.738282-.078125-12.191406.078125-22.015625 13.097656-21.949218 29.074219.070312 15.980468 10.003906 28.867187 22.195312 28.789062.582031-.003906 1.164062-.039062 1.734375-.101562v.089843s13.828125.878907 30.3125-29.132812zm0 0" fill="#ff624b"/><path d="m358.699219 190.132812h.089843c-.0625-.574218-.097656-1.152343-.101562-1.738281-.0625-9.835937 8.3125-18.195312 19.945312-21.097656-2.882812-.71875-5.960937-1.109375-9.15625-1.09375-15.976562.066406-28.867187 10.003906-28.785156 22.191406.003906.582031.039063 1.164063.097656 1.738281h-.089843s-.875 13.824219 29.132812 30.3125c3.351563-1.882812 6.292969-3.726562 8.910157-5.519531-20.714844-13.941406-20.042969-24.792969-20.042969-24.792969zm0 0" fill="#ff4b34"/><path d="m399.085938 208.625v.085938c.574218-.0625 1.152343-.09375 1.738281-.097657 9.835937-.066406 18.195312 8.308594 21.101562 19.941407.71875-2.882813 1.105469-5.960938 1.09375-9.15625-.070312-15.976563-10.003906-28.863282-22.191406-28.785157-.585937.003907-1.164063.035157-1.738281.097657v-.085938s-13.828125-.878906-30.3125 29.128906c1.882812 3.347656 3.726562 6.292969 5.519531 8.90625 13.9375-20.707031 24.789063-20.035156 24.789063-20.035156zm0 0" fill="#ff4b34"/><path d="m361.742188 250.996094c-.003907-.585938.023437-1.164063.078124-1.738282h-.089843s-.777344-10.359374 18.335937-24c-3.019531-2.117187-6.515625-4.3125-10.601562-6.558593-29.792969 16.742187-28.734375 30.554687-28.734375 30.554687h.089843c-.054687.574219-.082031 1.15625-.078124 1.738282.082031 12.1875 13.097656 22.015624 29.078124 21.949218 3.648438-.015625 7.132813-.550781 10.339844-1.503906-10.726562-3.191406-18.355468-11.121094-18.417968-20.441406zm0 0" fill="#ff4b34"/><path d="m331.273438 219.742188c-.050782-12.695313 6.144531-23.515626 14.804687-27.464844-3.832031-1.796875-6.117187-1.621094-6.117187-1.621094v.085938c-.574219-.050782-1.15625-.082032-1.738282-.078126-12.191406.082032-22.019531 13.097657-21.949218 29.078126.066406 15.976562 10.003906 28.867187 22.191406 28.785156.585937-.003906 1.164062-.039063 1.738281-.101563v.089844s2.199219.132813 5.886719-1.597656c-8.578125-3.917969-14.761719-14.585938-14.816406-27.175781zm0 0" fill="#ff4b34"/><path d="m379.578125 218.101562c0 5.523438-4.476563 10-10 10s-10-4.476562-10-10c0-5.523437 4.476563-10 10-10s10 4.476563 10 10zm0 0" fill="#ffd551"/><path d="m352.636719 276.046875c29.789062-16.738281 28.730469-30.554687 28.730469-30.554687h-.089844c.054687-.574219.082031-1.15625.078125-1.738282-.082031-12.191406-13.097657-22.015625-29.078125-21.949218-15.976563.070312-28.863282 10.003906-28.785156 22.191406.003906.585937.039062 1.164062.101562 1.738281h-.089844c0 .003906-.878906 13.828125 29.132813 30.3125zm0 0" fill="#ff624b"/><path d="m352.265625 274.304688c-29.789063 16.742187-28.730469 30.558593-28.730469 30.558593h.089844c-.054688.570313-.082031 1.152344-.078125 1.734375.082031 12.191406 13.097656 22.019532 29.074219 21.949219 15.980468-.066406 28.867187-10.003906 28.789062-22.191406-.003906-.585938-.039062-1.164063-.101562-1.738281h.089844s.875-13.824219-29.132813-30.3125zm0 0" fill="#ff624b"/><path d="m351.578125 275.363281c16.742187 29.789063 30.558594 28.730469 30.558594 28.730469v-.089844c.574219.054688 1.152343.082032 1.734375.078125 12.191406-.082031 22.019531-13.097656 21.949218-29.078125-.066406-15.976562-10.003906-28.863281-22.191406-28.785156-.582031.003906-1.164062.039062-1.738281.101562v-.089843s-13.824219-.878907-30.3125 29.132812zm0 0" fill="#ff624b"/><path d="m353.320312 274.992188c-16.738281-29.789063-30.554687-28.730469-30.554687-28.730469v.089843c-.574219-.054687-1.15625-.082031-1.738281-.078124-12.191406.078124-22.015625 13.097656-21.949219 29.074218.070313 15.980469 10.003906 28.867188 22.191406 28.789063.585938-.003907 1.164063-.039063 1.738281-.101563v.089844c.003907 0 13.828126.875 30.3125-29.132812zm0 0" fill="#ff624b"/><path d="m341.503906 245.734375h.089844c-.0625-.574219-.097656-1.152344-.101562-1.738281-.0625-9.832032 8.3125-18.195313 19.941406-21.097656-2.878906-.71875-5.957032-1.105469-9.152344-1.09375-15.976562.070312-28.867188 10.003906-28.785156 22.191406.003906.585937.035156 1.164062.097656 1.738281h-.089844s-.875 13.828125 29.132813 30.3125c3.351562-1.882813 6.292969-3.726563 8.910156-5.515625-20.714844-13.941406-20.042969-24.796875-20.042969-24.796875zm0 0" fill="#ff4b34"/><path d="m381.890625 264.230469v.085937c.574219-.0625 1.152344-.09375 1.738281-.097656 9.835938-.066406 18.195313 8.3125 21.101563 19.941406.714843-2.878906 1.105469-5.957031 1.09375-9.15625-.070313-15.976562-10.003907-28.863281-22.191407-28.785156-.585937.003906-1.164062.035156-1.738281.097656v-.085937s-13.828125-.878907-30.3125 29.128906c1.882813 3.351563 3.726563 6.292969 5.515625 8.90625 13.9375-20.707031 24.792969-20.035156 24.792969-20.035156zm0 0" fill="#ff4b34"/><path d="m344.546875 306.597656c-.003906-.582031.023437-1.164062.078125-1.734375h-.089844s-.777344-10.359375 18.335938-24c-3.023438-2.121093-6.519532-4.3125-10.605469-6.558593-29.789063 16.738281-28.730469 30.554687-28.730469 30.554687h.089844c-.054688.574219-.082031 1.152344-.078125 1.738281.082031 12.1875 13.097656 22.015625 29.074219 21.949219 3.652344-.015625 7.136718-.550781 10.34375-1.503906-10.726563-3.191407-18.355469-11.125-18.417969-20.445313zm0 0" fill="#ff4b34"/><path d="m314.078125 275.347656c-.054687-12.695312 6.144531-23.515625 14.804687-27.464844-3.832031-1.796874-6.121093-1.621093-6.121093-1.621093v.085937c-.574219-.050781-1.152344-.082031-1.738281-.078125-12.1875.082031-22.015626 13.101563-21.945313 29.078125.066406 15.976563 10.003906 28.867188 22.191406 28.785156.585938-.003906 1.164063-.039062 1.738281-.097656v.089844s2.199219.128906 5.886719-1.597656c-8.578125-3.921875-14.761719-14.585938-14.816406-27.179688zm0 0" fill="#ff4b34"/><path d="m362.386719 273.707031c0 5.519531-4.480469 10-10 10-5.523438 0-10-4.480469-10-10 0-5.523437 4.476562-10 10-10 5.519531 0 10 4.476563 10 10zm0 0" fill="#ffd551"/><path d="m359.894531 149.496094c29.789063-16.738282 28.734375-30.554688 28.734375-30.554688h-.089844c.054688-.574218.082032-1.152344.078126-1.738281-.082032-12.191406-13.097657-22.015625-29.078126-21.949219-15.976562.070313-28.863281 10.003906-28.785156 22.195313.003906.582031.039063 1.164062.101563 1.734375h-.089844s-.878906 13.828125 29.128906 30.3125zm0 0" fill="#ff624b"/><path d="m359.527344 147.753906c-29.789063 16.742188-28.730469 30.558594-28.730469 30.558594h.089844c-.054688.574219-.082031 1.152344-.078125 1.738281.082031 12.1875 13.097656 22.015625 29.078125 21.945313 15.976562-.066406 28.863281-10.003906 28.785156-22.191406-.003906-.582032-.039063-1.164063-.101563-1.738282h.089844s.875-13.824218-29.132812-30.3125zm0 0" fill="#ff624b"/><path d="m358.839844 148.808594c16.742187 29.789062 30.558594 28.734375 30.558594 28.734375v-.089844c.574218.050781 1.152343.082031 1.738281.078125 12.1875-.082031 22.015625-13.101562 21.945312-29.078125-.066406-15.976563-10.003906-28.867187-22.191406-28.785156-.582031.003906-1.164063.039062-1.738281.097656v-.089844c0 .003907-13.824219-.875-30.3125 29.132813zm0 0" fill="#ff624b"/><path d="m360.582031 148.445312c-16.738281-29.792968-30.554687-28.734374-30.554687-28.734374v.089843c-.574219-.054687-1.15625-.082031-1.738282-.078125-12.191406.082032-22.015624 13.097656-21.949218 29.078125.070312 15.976563 10.003906 28.863281 22.191406 28.785157.585938-.003907 1.164062-.039063 1.738281-.101563v.089844s13.828125.878906 30.3125-29.128907zm0 0" fill="#ff624b"/><path d="m348.765625 119.183594h.089844c-.0625-.570313-.097657-1.148438-.101563-1.734375-.0625-9.835938 8.3125-18.199219 19.941406-21.101563-2.878906-.714844-5.957031-1.105468-9.152343-1.09375-15.976563.070313-28.867188 10.003906-28.785157 22.195313.003907.582031.039063 1.164062.097657 1.734375h-.089844s-.875 13.828125 29.132813 30.3125c3.351562-1.878906 6.292968-3.726563 8.910156-5.515625-20.714844-13.941407-20.042969-24.796875-20.042969-24.796875zm0 0" fill="#ff4b34"/><path d="m389.152344 137.679688v.085937c.574218-.058594 1.152344-.09375 1.738281-.097656 9.835937-.066407 18.195313 8.3125 21.101563 19.941406.71875-2.878906 1.105468-5.957031 1.09375-9.152344-.070313-15.980469-10.003907-28.867187-22.191407-28.789062-.585937.003906-1.164062.039062-1.738281.097656v-.085937s-13.828125-.878907-30.3125 29.128906c1.882812 3.351562 3.726562 6.292968 5.515625 8.910156 13.941406-20.710938 24.792969-20.039062 24.792969-20.039062zm0 0" fill="#ff4b34"/><path d="m351.808594 180.050781c-.003906-.585937.023437-1.164062.078125-1.738281h-.089844s-.777344-10.359375 18.335937-24c-3.023437-2.117188-6.519531-4.3125-10.605468-6.558594-29.789063 16.738282-28.730469 30.554688-28.730469 30.554688h.089844c-.054688.574218-.082031 1.15625-.078125 1.738281.082031 12.1875 13.097656 22.015625 29.078125 21.949219 3.648437-.015625 7.132812-.550782 10.339843-1.503906-10.726562-3.191407-18.359374-11.121094-18.417968-20.441407zm0 0" fill="#ff4b34"/><path d="m321.339844 148.800781c-.054688-12.699219 6.144531-23.515625 14.804687-27.46875-3.832031-1.792969-6.121093-1.621093-6.121093-1.621093v.089843c-.574219-.054687-1.152344-.082031-1.738282-.078125-12.1875.078125-22.015625 13.097656-21.945312 29.074219.066406 15.980469 10.003906 28.867187 22.191406 28.785156.585938-.003906 1.164062-.035156 1.738281-.097656v.089844s2.199219.132812 5.886719-1.597657c-8.578125-3.921874-14.761719-14.585937-14.816406-27.175781zm0 0" fill="#ff4b34"/><path d="m369.644531 147.15625c0 5.523438-4.476562 10-10 10-5.523437 0-10-4.476562-10-10s4.476563-10 10-10c5.523438 0 10 4.476562 10 10zm0 0" fill="#ffd551"/><path d="m72.582031 435.109375c0 9.664063-7.835937 17.5-17.5 17.5-9.664062 0-17.5-7.835937-17.5-17.5 0-9.667969 7.835938-17.5 17.5-17.5 9.664063 0 17.5 7.832031 17.5 17.5zm0 0" fill="#99af17"/><path d="m474.6875 435.109375c0 9.664063-7.832031 17.5-17.5 17.5-9.664062 0-17.5-7.835937-17.5-17.5 0-9.667969 7.835938-17.5 17.5-17.5 9.667969 0 17.5 7.832031 17.5 17.5zm0 0" fill="#ccc033"/></svg>