<?xml version="1.0" encoding="iso-8859-1"?>
<!-- Generator: Adobe Illustrator 19.0.0, SVG Export Plug-In . SVG Version: 6.00 Build 0)  -->
<svg version="1.1" id="Capa_1" xmlns="http://www.w3.org/2000/svg" xmlns:xlink="http://www.w3.org/1999/xlink" x="0px" y="0px"
	 viewBox="0 0 512 512" style="enable-background:new 0 0 512 512;" xml:space="preserve">
<path style="fill:#0CA656;" d="M196,300c-87.568,0-98.643-65.874-106.729-113.979C81.391,139.102,75.268,120,46,120
	c-8.291,0-15-6.709-15-15s6.709-15,15-15h33.604c62.607,0,77.168,37.661,91.26,74.077c3.369,8.774,6.973,18.062,11.426,27.554
	c0,0.029,0.029,0.059,0.029,0.103c0.088,0.132,0.146,0.278,0.205,0.425c11.426,24.023,30.879,54.771,80.186,79.424
	c6.211,3.105,9.492,10.093,7.881,16.86C266.394,306.392,242.602,300,196,300z"/>
<g>
	<path style="fill:#10BB67;" d="M249.291,298.418c-57.51-28.755-80.361-64.995-93.838-93.369l0,0
		c-0.498-0.952-0.908-1.963-1.201-3.003l0,0c-18.018-64.468-19.395-174.141-19.453-178.784c-0.059-6.05,3.516-11.543,9.082-13.945
		c5.537-2.388,12.041-1.201,16.348,3.003c27.012,26.147,63.779,78.105,80.625,130.386c0.498,1.509,0.732,3.091,0.732,4.688
		c-0.293,47.417,9.609,93.926,27.861,130.972C275.781,291.26,262.089,304.817,249.291,298.418z"/>
	<path style="fill:#10BB67;" d="M316,300c-46.602,0-70.394,6.392-74.59-11.558c-1.611-6.768,1.67-13.755,7.881-16.86
		c49.307-24.653,68.76-55.4,80.186-79.424c0.059-0.146,0.117-0.293,0.205-0.425c0-0.044,0.029-0.073,0.029-0.103
		c4.453-9.492,8.057-18.779,11.426-27.554C355.229,127.661,369.789,90,432.396,90H466c8.291,0,15,6.709,15,15s-6.709,15-15,15
		c-29.268,0-35.391,19.102-43.271,66.021C414.643,234.126,403.568,300,316,300z"/>
</g>
<path style="fill:#0CA656;" d="M242.553,278.364c18.252-37.061,28.154-83.467,27.861-130.679c0-1.597,0.234-3.472,0.732-4.98
	c14.766-45.835,47.988-99.492,80.742-130.503c9.622-9.074,25.441-2.166,25.313,11.06c-0.059,4.644-1.436,114.316-19.453,178.784l0,0
	c-0.293,1.04-0.703,2.051-1.201,3.003l0,0c-13.477,28.374-36.328,64.614-93.838,93.369
	C249.911,304.817,236.219,291.26,242.553,278.364z"/>
<path style="fill:#32D736;" d="M269.499,8.401C266.8,3.3,261.698,0,256,0s-10.8,3.3-13.499,8.401
	c-19.801,39.899-30.6,88.198-30.9,138.898c-0.3,51.901,10.8,103.2,30.901,144.3c3.896,8.101,8.701,11.102,13.499,9.302
	c20.098-4.501,45-80.101,44.399-153.301v-0.3C300.099,96.599,289.3,48.6,269.499,8.401z"/>
<path style="fill:#10BB67;" d="M256,300.901V0c5.698,0,10.8,3.3,13.499,8.401c19.801,40.199,30.6,88.198,30.9,138.898v0.3
	C301,220.8,276.098,296.4,256,300.901z"/>
<path style="fill:#994C0F;" d="M376,332H136c-9.302,0-16.501,8.699-14.7,17.999l30,150C152.802,506.901,158.8,512,166,512h180
	c7.2,0,13.198-5.099,14.7-12.001l30-150C392.501,340.699,385.302,332,376,332z"/>
<path style="fill:#BF6015;" d="M406,270H106c-8.401,0-15,6.599-15,15v32c0,24.901,20.098,45,45,45h240c24.902,0,45-20.099,45-45v-32
	C421,276.599,414.401,270,406,270z"/>
<path style="fill:#713708;" d="M390.7,349.999l-30,150C359.198,506.901,353.2,512,346,512h-90V332h120
	C385.302,332,392.501,340.699,390.7,349.999z"/>
<path style="fill:#994C10;" d="M421,285v32c0,24.901-20.098,45-45,45H256v-92h150C414.401,270,421,276.599,421,285z"/>
<g>
</g>
<g>
</g>
<g>
</g>
<g>
</g>
<g>
</g>
<g>
</g>
<g>
</g>
<g>
</g>
<g>
</g>
<g>
</g>
<g>
</g>
<g>
</g>
<g>
</g>
<g>
</g>
<g>
</g>
</svg>
