<svg width="35" height="38" viewBox="0 0 35 38" fill="none" xmlns="http://www.w3.org/2000/svg">
<rect width="35" height="38" fill="#0087D4"/>
<path fill-rule="evenodd" clip-rule="evenodd" d="M14.7071 10.2929C15.0976 10.6834 15.0976 11.3166 14.7071 11.7071L10.4142 16L14.7071 20.2929C15.0976 20.6834 15.0976 21.3166 14.7071 21.7071C14.3166 22.0976 13.6834 22.0976 13.2929 21.7071L8.29289 16.7071C7.90237 16.3166 7.90237 15.6834 8.29289 15.2929L13.2929 10.2929C13.6834 9.90237 14.3166 9.90237 14.7071 10.2929Z" fill="white"/>
<path fill-rule="evenodd" clip-rule="evenodd" d="M8 16C8 15.4477 8.44772 15 9 15H21C22.3261 15 23.5979 15.5268 24.5355 16.4645C25.4732 17.4021 26 18.6739 26 20V27C26 27.5523 25.5523 28 25 28C24.4477 28 24 27.5523 24 27V20C24 19.2044 23.6839 18.4413 23.1213 17.8787C22.5587 17.3161 21.7956 17 21 17H9C8.44772 17 8 16.5523 8 16Z" fill="white"/>
</svg>
