<svg height="415pt" viewBox="-10 0 415 415.83066" width="415pt" xmlns="http://www.w3.org/2000/svg"><path d="m307.617188 228.097656c0 84.832032-68.769532 153.601563-153.601563 153.601563s-153.601563-68.769531-153.601563-153.601563c0-84.832031 68.769532-153.601562 153.601563-153.601562s153.601563 68.769531 153.601563 153.601562zm0 0" fill="#efefd2"/><path d="m307.617188 238.335938h-182.050782l21.816406 136.535156h138.414063zm0 0" fill="#fff"/><path d="m285.792969 381.699219h-138.410157c-3.351562 0-6.214843-2.4375-6.738281-5.75l-21.820312-136.535157c-.316407-1.972656.25-3.988281 1.546875-5.507812s3.191406-2.394531 5.191406-2.394531h182.050781c2 0 3.898438.875 5.195313 2.394531 1.300781 1.519531 1.859375 3.535156 1.542968 5.507812l-21.816406 136.535157c-.527344 3.3125-3.386718 5.75-6.742187 5.75zm-132.585938-13.65625h126.765625l19.636719-122.878907h-166.042969zm0 0" fill="#4c241d"/><path d="m147.382812 374.871094 4.847657 34.132812h128.714843l4.851563-34.132812zm0 0" fill="#bf7e68"/><path d="m280.949219 415.832031h-128.71875c-3.398438 0-6.277344-2.5-6.757813-5.867187l-4.847656-34.136719c-.277344-1.957031.308594-3.9375 1.601562-5.4375 1.296876-1.492187 3.179688-2.347656 5.15625-2.347656h138.410157c1.980469 0 3.863281.855469 5.15625 2.347656 1.300781 1.5 1.882812 3.476563 1.605469 5.4375l-4.847657 34.136719c-.480469 3.367187-3.359375 5.867187-6.757812 5.867187zm-122.792969-13.65625h116.863281l2.910157-20.476562h-122.683594zm0 0" fill="#4c241d"/><path d="m268.523438 9.148438c-22.710938-10.792969-51.230469 1.726562-63.699219 27.960937-12.472657 26.238281-4.171875 56.257813 18.539062 67.050781 22.710938 10.796875 51.230469-1.722656 63.699219-27.960937 12.472656-26.234375 4.171875-56.253907-18.539062-67.050781zm0 0" fill="#a9ba5a"/><path d="m236.113281 113.308594c-6.074219 0-11.578125-1.007813-15.820312-3.042969-16.585938-7.945313-36.644531-44.726563-21.585938-76.21875 6.632813-13.871094 19.214844-24.617187 35.433594-30.25 13.734375-4.773437 28.421875-5.070313 37.421875-.753906 16.585938 7.945312 36.648438 44.722656 21.585938 76.222656-6.632813 13.875-19.222657 24.617187-35.433594 30.253906-7.261719 2.519531-14.789063 3.789063-21.601563 3.789063zm19.601563-99.683594c-4.867188 0-10.78125.875-17.09375 3.070312-7.378906 2.5625-20.78125 8.992188-27.59375 23.238282-11.875 24.835937 5.09375 53.195312 15.167968 58.019531 4.691407 2.253906 15.164063 2.796875 27.039063-1.332031 7.378906-2.566406 20.78125-8.996094 27.59375-23.238282 11.878906-24.84375-5.09375-53.203124-15.160156-58.023437-2.207031-1.054687-5.671875-1.734375-9.953125-1.734375zm0 0" fill="#4c241d"/><path d="m382.941406 85.929688c-8.40625-26.125-37.617187-40.09375-65.242187-31.207032-27.628907 8.890625-43.207031 37.277344-34.800781 63.402344 8.40625 26.121094 37.613281 40.09375 65.242187 31.203125 27.625-8.886719 43.207031-37.273437 34.800781-63.398437zm0 0" fill="#a9ba5a"/><path d="m334.695312 158.238281c-10.492187 0-21.386718-3.097656-31.773437-9.167969-12.972656-7.585937-23.421875-19.042968-26.613281-29.1875-5.960938-18.9375 6.386718-61.273437 39.652344-71.773437 14.757812-4.65625 31.445312-2.21875 46.984374 6.863281 12.976563 7.582032 23.421876 19.039063 26.617188 29.183594 5.957031 18.9375-6.386719 61.273438-39.652344 71.773438-4.894531 1.542968-10.007812 2.308593-15.214844 2.308593zm-3.554687-98.789062c-3.566406 0-7.292969.488281-11.070313 1.679687-24.753906 7.8125-35.027343 41.015625-30.734374 54.65625 1.765624 5.621094 8.933593 14.746094 20.480468 21.496094 7.046875 4.117188 21.085938 10.339844 35.984375 5.625 24.753907-7.808594 35.027344-41.011719 30.734375-54.652344-1.765625-5.621094-8.933594-14.746094-20.480468-21.496094-5.261719-3.074218-14.414063-7.308593-24.914063-7.308593zm0 0" fill="#4c241d"/><path d="m170.050781 63.078125c-9.855469-27.328125-38.753906-41.9375-64.546875-32.632813-25.792968 9.300782-38.714844 38.996094-28.855468 66.324219 9.855468 27.328125 38.753906 41.9375 64.546874 32.632813 25.792969-9.300782 38.714844-38.996094 28.855469-66.324219zm0 0" fill="#a9ba5a"/><path d="m130.492188 137.785156c-8.136719 0-17.351563-1.816406-25.988282-5.3125-16.679687-6.753906-28.8125-18.480468-34.15625-33.019531-12.050781-32.769531 13.867188-68.4375 32.480469-75.296875 9.96875-3.679688 25.421875-2.40625 39.351563 3.234375 16.679687 6.753906 28.808593 18.480469 34.152343 33.019531 12.046875 32.773438-13.871093 68.4375-32.480469 75.296875-3.789062 1.394531-8.375 2.078125-13.359374 2.078125zm-22.941407-100.8125c-13.402343 4.9375-33.351562 33.378906-24.386719 57.769532 5.398438 14.675781 18.898438 22.007812 26.464844 25.070312 12.390625 5.019531 23.976563 5.125 29.503906 3.078125 13.402344-4.9375 33.355469-33.375 24.386719-57.769531-5.394531-14.675782-18.894531-22.007813-26.464843-25.074219-12.386719-5.007813-23.96875-5.117187-29.503907-3.074219zm0 0" fill="#4c241d"/><path d="m388.949219 147.296875c-7.683594-20.640625-37.109375-28.738281-65.71875-18.085937-28.613281 10.652343-45.578125 36.019531-37.894531 56.660156 7.683593 20.640625 37.109374 28.742187 65.722656 18.089844 28.609375-10.652344 45.578125-36.019532 37.890625-56.664063zm0 0" fill="#a9ba5a"/><path d="m329.988281 214.339844c-23.292969 0-44.027343-11.121094-49.765625-23.03125-3.472656-7.195313-3.035156-18.199219 1.179688-29.441406 6.304687-16.84375 19.304687-30.53125 35.679687-37.542969 32.367188-13.878907 69 1.085937 76.945313 17.554687 3.472656 7.195313 3.03125 18.203125-1.179688 29.441406-6.304687 16.847657-19.3125 30.53125-35.679687 37.542969-8.964844 3.84375-18.257813 5.476563-27.179688 5.476563zm13.828125-81.722656c-6.980468 0-14.292968 1.226562-21.363281 4.253906-18.40625 7.890625-25.898437 23.457031-28.265625 29.78125-3.234375 8.628906-3.164062 15.617187-1.671875 18.722656 4.328125 8.988281 33.398437 22.019531 59.28125 10.9375 18.398437-7.886719 25.898437-23.453125 28.265625-29.777344 3.234375-8.628906 3.164062-15.621094 1.671875-18.722656-3.152344-6.527344-19.371094-15.195312-37.917969-15.195312zm0 0" fill="#4c241d"/><path d="m306.292969 201.207031c-24.027344-18.816406-51.382813-24.003906-61.101563-11.59375-9.714844 12.40625 1.886719 37.71875 25.917969 56.53125 24.027344 18.816407 51.382813 24.007813 61.097656 11.597657 9.71875-12.410157-1.882812-37.722657-25.914062-56.535157zm0 0" fill="#a9ba5a"/><path d="m315.007812 269.46875c-12.925781 0-30.039062-4.3125-46.394531-16.609375-26.546875-19.984375-38.53125-53.101563-29.726562-66.195313 2.769531-4.105468 8.015625-6.914062 15.183593-8.125 12.578126-2.105468 34.492188.773438 54.679688 15.964844 26.550781 19.976563 38.546875 53.089844 29.730469 66.1875-2.765625 4.105469-8.019531 6.917969-15.191407 8.125-2.488281.417969-5.273437.652344-8.28125.652344zm-64.785156-75.179688c-2.40625 4.144532 2.511719 29.53125 26.605469 47.660157 23.613281 17.761719 47.519531 14.710937 50.332031 11.101562 2.40625-4.0625-2.5-29.488281-26.625-47.636719-23.585937-17.757812-47.441406-14.726562-50.3125-11.125zm-5.667968-3.816406h.066406zm0 0" fill="#4c241d"/><path d="m111.015625 96.089844c-28.613281-10.652344-58.039063-2.554688-65.722656 18.085937-7.683594 20.644531 9.28125 46.011719 37.894531 56.664063 28.609375 10.652344 58.035156 2.550781 65.71875-18.089844s-9.28125-46.011719-37.890625-56.660156zm0 0" fill="#a9ba5a"/><path d="m104.222656 181.203125c-8.921875 0-18.210937-1.628906-27.179687-5.46875-16.363281-7.011719-29.363281-20.691406-35.671875-37.535156-4.214844-11.242188-4.65625-22.253907-1.183594-29.449219 7.949219-16.472656 44.578125-31.429688 76.953125-17.554688 16.363281 7.007813 29.367187 20.695313 35.675781 37.539063 4.207032 11.242187 4.648438 22.246094 1.179688 29.445313-5.746094 11.90625-26.488282 23.023437-49.773438 23.023437zm-13.824218-81.714844c-18.550782 0-34.765626 8.664063-37.914063 15.1875-1.496094 3.105469-1.558594 10.101563 1.671875 18.730469 2.371094 6.328125 9.863281 21.890625 28.265625 29.777344 25.863281 11.082031 54.945313-1.957032 59.269531-10.9375 1.5-3.105469 1.566406-10.097656-1.664062-18.726563-2.371094-6.324219-9.867188-21.890625-28.269532-29.777343-7.066406-3.027344-14.378906-4.253907-21.359374-4.253907zm0 0" fill="#4c241d"/><path d="m189.53125 124.109375c0-21.347656-17.289062-38.65625-38.609375-38.65625-21.324219 0-38.609375 17.308594-38.609375 38.65625s17.285156 38.652344 38.609375 38.652344c21.320313 0 38.609375-17.304688 38.609375-38.652344zm0 0" fill="#9dc1e4"/><path d="m150.921875 169.585938c-25.054687 0-45.4375-20.402344-45.4375-45.476563 0-25.078125 20.382813-45.480469 45.4375-45.480469s45.433594 20.402344 45.433594 45.480469c0 25.074219-20.378907 45.476563-45.433594 45.476563zm0-77.304688c-17.527344 0-31.785156 14.277344-31.785156 31.824219 0 17.550781 14.257812 31.828125 31.785156 31.828125 17.523437 0 31.777344-14.277344 31.777344-31.828125 0-17.546875-14.253907-31.824219-31.777344-31.824219zm0 0" fill="#4c241d"/><path d="m167.960938 124.109375c0-9.421875-7.628907-17.0625-17.039063-17.0625-9.414063 0-17.042969 7.640625-17.042969 17.0625s7.628906 17.058594 17.042969 17.058594c9.410156 0 17.039063-7.636719 17.039063-17.058594zm0 0" fill="#ffce56"/><path d="m150.921875 147.996094c-13.160156 0-23.867187-10.71875-23.867187-23.886719 0-13.171875 10.707031-23.886719 23.867187-23.886719s23.867187 10.714844 23.867187 23.886719c0 13.167969-10.707031 23.886719-23.867187 23.886719zm0-34.121094c-5.632813 0-10.214844 4.585938-10.214844 10.230469s4.585938 10.234375 10.214844 10.234375 10.210937-4.589844 10.210937-10.234375-4.582031-10.230469-10.210937-10.230469zm0 0" fill="#4c241d"/><path d="m299.839844 97.800781c0-21.347656-17.285156-38.652343-38.609375-38.652343-21.320313 0-38.605469 17.304687-38.605469 38.652343 0 21.347657 17.285156 38.65625 38.605469 38.65625 21.324219 0 38.609375-17.308593 38.609375-38.65625zm0 0" fill="#9dc1e4"/><path d="m261.234375 143.285156c-25.054687 0-45.4375-20.402344-45.4375-45.484375 0-25.074219 20.382813-45.476562 45.4375-45.476562s45.433594 20.402343 45.433594 45.476562c0 25.082031-20.378907 45.484375-45.433594 45.484375zm0-77.3125c-17.527344 0-31.785156 14.277344-31.785156 31.828125s14.257812 31.828125 31.785156 31.828125 31.78125-14.277344 31.78125-31.828125-14.253906-31.828125-31.78125-31.828125zm0 0" fill="#4c241d"/><path d="m278.726562 97.800781c0-9.671875-7.832031-17.515625-17.496093-17.515625-9.660157 0-17.492188 7.84375-17.492188 17.515625 0 9.675781 7.832031 17.515625 17.492188 17.515625 9.664062 0 17.496093-7.839844 17.496093-17.515625zm0 0" fill="#ffce56"/><path d="m261.234375 122.144531c-13.410156 0-24.328125-10.917969-24.328125-24.34375 0-13.421875 10.917969-24.339843 24.328125-24.339843 13.414063 0 24.320313 10.917968 24.320313 24.339843 0 13.425781-10.90625 24.34375-24.320313 24.34375zm0-35.03125c-5.886719 0-10.671875 4.796875-10.671875 10.6875 0 5.894531 4.785156 10.691407 10.671875 10.691407 5.878906 0 10.667969-4.796876 10.667969-10.691407 0-5.890625-4.789063-10.6875-10.667969-10.6875zm0 0" fill="#4c241d"/><path d="m310.871094 157.238281c0-21.347656-17.285156-38.652343-38.609375-38.652343-21.320313 0-38.605469 17.304687-38.605469 38.652343 0 21.351563 17.285156 38.65625 38.605469 38.65625 21.324219 0 38.609375-17.304687 38.609375-38.65625zm0 0" fill="#9dc1e4"/><path d="m272.261719 202.722656c-25.054688 0-45.433594-20.40625-45.433594-45.480468 0-25.078126 20.378906-45.484376 45.433594-45.484376 25.054687 0 45.441406 20.40625 45.441406 45.484376 0 25.074218-20.390625 45.480468-45.441406 45.480468zm0-77.3125c-17.527344 0-31.78125 14.28125-31.78125 31.828125 0 17.550781 14.253906 31.828125 31.78125 31.828125 17.527343 0 31.785156-14.277344 31.785156-31.828125 0-17.546875-14.257813-31.828125-31.785156-31.828125zm0 0" fill="#4c241d"/><path d="m289.410156 157.238281c0-9.480469-7.675781-17.167969-17.148437-17.167969-9.46875 0-17.148438 7.6875-17.148438 17.167969 0 9.484375 7.679688 17.171875 17.148438 17.171875 9.472656 0 17.148437-7.6875 17.148437-17.171875zm0 0" fill="#ffce56"/><path d="m272.261719 181.234375c-13.21875 0-23.972657-10.765625-23.972657-23.996094s10.753907-23.996093 23.972657-23.996093 23.980469 10.765624 23.980469 23.996093c0 13.234375-10.761719 23.996094-23.980469 23.996094zm0-34.335937c-5.695313 0-10.320313 4.640624-10.320313 10.34375 0 5.699218 4.625 10.339843 10.320313 10.339843 5.695312 0 10.328125-4.640625 10.328125-10.339843 0-5.703126-4.632813-10.34375-10.328125-10.34375zm0 0" fill="#4c241d"/><path d="m247.308594 113.0625c0-21.347656-17.289063-38.652344-38.609375-38.652344-21.324219 0-38.609375 17.304688-38.609375 38.652344s17.285156 38.65625 38.609375 38.65625c21.320312 0 38.609375-17.308594 38.609375-38.65625zm0 0" fill="#9dc1e4"/><path d="m208.703125 158.542969c-25.058594 0-45.441406-20.402344-45.441406-45.476563 0-25.078125 20.382812-45.480468 45.441406-45.480468 25.054687 0 45.433594 20.402343 45.433594 45.480468 0 25.074219-20.382813 45.476563-45.433594 45.476563zm0-77.304688c-17.527344 0-31.789063 14.273438-31.789063 31.824219s14.261719 31.828125 31.789063 31.828125 31.777344-14.277344 31.777344-31.828125-14.253907-31.824219-31.777344-31.824219zm0 0" fill="#4c241d"/><path d="m224.53125 113.0625c0-8.753906-7.085938-15.851562-15.832031-15.851562-8.746094 0-15.835938 7.097656-15.835938 15.851562 0 8.757812 7.089844 15.855469 15.835938 15.855469 8.746093 0 15.832031-7.097657 15.832031-15.855469zm0 0" fill="#ffce56"/><path d="m208.703125 135.746094c-12.5 0-22.667969-10.175782-22.667969-22.679688 0-12.507812 10.167969-22.683594 22.667969-22.683594 12.492187 0 22.660156 10.175782 22.660156 22.683594 0 12.503906-10.167969 22.679688-22.660156 22.679688zm0-31.707032c-4.96875 0-9.015625 4.050782-9.015625 9.027344 0 4.976563 4.046875 9.023438 9.015625 9.023438 4.964844 0 9.003906-4.046875 9.003906-9.023438 0-4.976562-4.039062-9.027344-9.003906-9.027344zm0 0" fill="#4c241d"/><path d="m170.773438 200.847656c-11.832032-24.757812-42.65625-34.6875-68.84375-22.171875-26.191407 12.515625-37.828126 42.734375-25.996094 67.496094 11.832031 24.761719 42.65625 34.6875 68.847656 22.171875 26.1875-12.515625 37.828125-42.734375 25.992188-67.496094zm0 0" fill="#a9ba5a"/><path d="m125.222656 279.476562c-8.257812 0-16.875-1.792968-25.421875-5.371093-13.859375-5.796875-25.726562-15.769531-30.230469-25.40625-8.410156-17.980469-1.761718-61.585938 29.832032-76.390625 14.015625-6.570313 30.878906-6.355469 47.480468.589844 13.863282 5.800781 25.726563 15.773437 30.230469 25.414062 8.410157 17.976562 1.765625 61.578125-29.828125 76.382812-6.800781 3.1875-14.273437 4.78125-22.0625 4.78125zm-3.855468-98.289062c-5.183594 0-10.722657.933594-16.171876 3.488281-23.511718 11.015625-29.316406 45.289063-23.257812 58.242188 2.496094 5.335937 10.800781 13.433593 23.136719 18.59375 7.53125 3.152343 22.269531 7.445312 36.417969.824219 23.507812-11.019532 29.308593-45.289063 23.257812-58.246094-2.5-5.335938-10.800781-13.433594-23.140625-18.59375-4.625-1.9375-11.980469-4.308594-20.242187-4.308594zm0 0" fill="#4c241d"/><path d="m200.558594 179.328125c0-21.347656-17.285156-38.65625-38.605469-38.65625-21.324219 0-38.609375 17.308594-38.609375 38.65625s17.285156 38.652344 38.609375 38.652344c21.320313 0 38.605469-17.304688 38.605469-38.652344zm0 0" fill="#9dc1e4"/><path d="m161.953125 224.808594c-25.054687 0-45.4375-20.40625-45.4375-45.480469 0-25.078125 20.382813-45.480469 45.4375-45.480469s45.433594 20.402344 45.433594 45.480469c0 25.074219-20.378907 45.480469-45.433594 45.480469zm0-77.308594c-17.527344 0-31.785156 14.277344-31.785156 31.828125s14.257812 31.824219 31.785156 31.824219c17.523437 0 31.78125-14.273438 31.78125-31.824219s-14.253906-31.828125-31.78125-31.828125zm0 0" fill="#4c241d"/><path d="m177.84375 179.328125c0-8.789063-7.117188-15.910156-15.890625-15.910156-8.777344 0-15.894531 7.121093-15.894531 15.910156 0 8.785156 7.117187 15.910156 15.894531 15.910156 8.773437 0 15.890625-7.125 15.890625-15.910156zm0 0" fill="#ffce56"/><path d="m161.953125 202.0625c-12.527344 0-22.722656-10.199219-22.722656-22.734375 0-12.539063 10.195312-22.738281 22.722656-22.738281 12.523437 0 22.71875 10.203125 22.71875 22.738281s-10.195313 22.734375-22.71875 22.734375zm0-31.816406c-5.003906 0-9.066406 4.074218-9.066406 9.082031s4.066406 9.082031 9.066406 9.082031c4.996094 0 9.0625-4.074218 9.0625-9.082031s-4.0625-9.082031-9.0625-9.082031zm0 0" fill="#4c241d"/><path d="m224.949219 205.753906c-26.519531-6.960937-54 10.167969-61.378907 38.265625-7.378906 28.101563 8.136719 56.523438 34.65625 63.488281 26.519532 6.964844 53.996094-10.167968 61.375-38.265624 7.378907-28.101563-8.136718-56.523438-34.652343-63.488282zm0 0" fill="#a9ba5a"/><path d="m205.1875 315.113281c-3.253906 0-6.28125-.351562-8.964844-1.070312-19.164062-5.136719-48.203125-38.304688-39.171875-72.042969 4.003907-14.960938 15.019531-27.738281 31.019531-35.976562 13.371094-6.886719 28.644532-9.527344 38.890626-6.792969 19.160156 5.136719 48.207031 38.304687 39.175781 72.039062-4.007813 14.960938-15.023438 27.742188-31.023438 35.980469-9.863281 5.082031-20.765625 7.863281-29.925781 7.863281zm12.785156-103.300781c-6.183594 0-14.820312 1.796875-23.652344 6.347656-7.257812 3.738282-20.035156 12.265625-24.082031 27.375-6.71875 25.105469 15.722657 51.617188 29.515625 55.320313 5.675782 1.527343 17.222656.378906 29.109375-5.746094 7.261719-3.734375 20.039063-12.265625 24.085938-27.371094 6.722656-25.105469-15.726563-51.621093-29.519531-55.320312-1.46875-.394531-3.316407-.605469-5.457032-.605469zm0 0" fill="#4c241d"/><path d="m255.714844 179.328125c0-21.347656-17.285156-38.65625-38.609375-38.65625-21.320313 0-38.605469 17.308594-38.605469 38.65625s17.285156 38.652344 38.605469 38.652344c21.324219 0 38.609375-17.304688 38.609375-38.652344zm0 0" fill="#9dc1e4"/><path d="m217.105469 224.808594c-25.050781 0-45.433594-20.40625-45.433594-45.480469 0-25.078125 20.382813-45.480469 45.433594-45.480469 25.054687 0 45.433593 20.402344 45.433593 45.480469 0 25.074219-20.378906 45.480469-45.433593 45.480469zm0-77.308594c-17.527344 0-31.777344 14.277344-31.777344 31.828125s14.253906 31.824219 31.777344 31.824219c17.527343 0 31.78125-14.273438 31.78125-31.824219s-14.25-31.828125-31.78125-31.828125zm0 0" fill="#4c241d"/><path d="m232.753906 179.328125c0-8.652344-7.007812-15.664063-15.648437-15.664063-8.636719 0-15.644531 7.011719-15.644531 15.664063 0 8.648437 7.007812 15.660156 15.644531 15.660156 8.640625 0 15.648437-7.011719 15.648437-15.660156zm0 0" fill="#ffce56"/><path d="m217.105469 201.816406c-12.390625 0-22.472657-10.089844-22.472657-22.488281 0-12.402344 10.082032-22.492187 22.472657-22.492187 12.394531 0 22.476562 10.089843 22.476562 22.492187 0 12.398437-10.082031 22.488281-22.476562 22.488281zm0-31.324218c-4.867188 0-8.816407 3.960937-8.816407 8.835937s3.949219 8.835937 8.816407 8.835937c4.871093 0 8.820312-3.960937 8.820312-8.835937s-3.949219-8.835937-8.820312-8.835937zm0 0" fill="#4c241d"/></svg>