<svg width="356" height="434" viewBox="0 0 356 434" fill="none" xmlns="http://www.w3.org/2000/svg">
<rect x="162" y="14" width="21" height="395" fill="#E7E7E7"/>
<rect x="13" width="15" height="410" fill="#E7E7E7"/>
<rect x="328" width="15" height="410" fill="#E7E7E7"/>
<rect x="13" y="396" width="330" height="14" fill="#E7E7E7"/>
<rect x="13" width="330" height="14" fill="#E7E7E7"/>
<line x1="13.4227" y1="409.267" x2="1.42274" y2="428.267" stroke="#E7E7E7"/>
<line y1="-0.5" x2="22.4722" y2="-0.5" transform="matrix(-0.533993 -0.845489 -0.845489 0.533993 354 428)" stroke="#E7E7E7"/>
<line x1="0.998588" y1="428.5" x2="353.999" y2="427.503" stroke="#E7E7E7"/>
<line x1="13" y1="409.5" x2="343" y2="409.5" stroke="#E7E7E7"/>
<path d="M13 410L24.2583 428H1.74167L13 410Z" fill="#E7E7E7"/>
<path d="M343 409L354.258 427H331.742L343 409Z" fill="#E7E7E7"/>
<rect x="13" y="410" width="330" height="18" fill="#E7E7E7"/>
<line x1="13.0015" y1="407.5" x2="342.002" y2="408.476" stroke="#C7C2C2"/>
<path d="M170.25 176C170.25 174.481 171.481 173.25 173 173.25C174.519 173.25 175.75 174.481 175.75 176V203C175.75 204.519 174.519 205.75 173 205.75C171.481 205.75 170.25 204.519 170.25 203V176Z" fill="#DBDADA" stroke="#919191" stroke-width="0.5"/>
<rect x="28" y="14" width="134" height="382" fill="#94EFEA"/>
<rect x="183" y="14" width="145" height="382" fill="#94EFEA"/>
<rect x="28" y="227" width="134" height="168" fill="#C4C4C4"/>
<rect x="183" y="227" width="12" height="168" fill="#C4C4C4"/>
<rect x="75" y="245" width="12" height="30" fill="#9A8D8D"/>
<rect x="28" y="245" width="6" height="30" fill="#9A8D8D"/>
<rect x="89" y="245" width="14" height="30" fill="#9A8D8D"/>
<rect x="142" y="245" width="14" height="30" fill="#9A8D8D"/>
<rect x="127" y="245" width="14" height="30" fill="#9A8D8D"/>
<rect x="35" y="245" width="14" height="30" fill="#9A8D8D"/>
<rect x="87.4719" y="245.097" width="2.00562" height="30.9447" fill="#E7E7E7"/>
<rect x="73.2416" y="244" width="1.43258" height="32.1198" fill="#E7E7E7"/>
<rect x="103.326" y="244" width="1.43258" height="32.1198" fill="#E7E7E7"/>
<rect x="73.2416" y="275.023" width="31.5169" height="1.09677" fill="#E7E7E7"/>
<rect x="73.2416" y="244" width="31.5169" height="1.09677" fill="#E7E7E7"/>
<line y1="-0.5" x2="1.87857" y2="-0.5" transform="matrix(-0.610073 0.792345 -0.887917 -0.460003 73.2416 276.041)" stroke="#E7E7E7"/>
<line y1="-0.5" x2="1.87857" y2="-0.5" transform="matrix(-0.610073 -0.792345 -0.887917 0.460003 105.809 277.53)" stroke="#E7E7E7"/>
<line y1="-0.5" x2="33.7136" y2="-0.5" transform="matrix(0.999997 -0.00231716 0.00344377 0.999994 72.0955 277.608)" stroke="#E7E7E7"/>
<line x1="73.2416" y1="275.62" x2="104.758" y2="275.62" stroke="#E7E7E7"/>
<path d="M73.2416 276.12L74.3168 277.53H72.1663L73.2416 276.12Z" fill="#E7E7E7"/>
<path d="M104.758 276.041L105.834 277.452H103.683L104.758 276.041Z" fill="#E7E7E7"/>
<rect x="73.2416" y="276.12" width="31.5169" height="1.41014" fill="#E7E7E7"/>
<line y1="-0.5" x2="31.4215" y2="-0.5" transform="matrix(0.999997 0.00243405 -0.00361749 0.999993 73.2416 275.963)" stroke="#C7C2C2"/>
<path d="M88.559 257.84V259.852C88.559 259.872 88.5426 259.888 88.5225 259.888C88.5023 259.888 88.486 259.872 88.486 259.852V257.84C88.486 257.819 88.5023 257.803 88.5225 257.803C88.5426 257.803 88.559 257.819 88.559 257.84Z" fill="#DBDADA" stroke="#919191" stroke-width="0.5"/>
<rect x="33.4719" y="245.097" width="2.00562" height="30.9447" fill="#E7E7E7"/>
<rect x="19.2416" y="244" width="1.43258" height="32.1198" fill="#E7E7E7"/>
<rect x="49.3258" y="244" width="1.43258" height="32.1198" fill="#E7E7E7"/>
<rect x="19.2416" y="275.023" width="31.5169" height="1.09677" fill="#E7E7E7"/>
<rect x="19.2416" y="244" width="31.5169" height="1.09677" fill="#E7E7E7"/>
<line y1="-0.5" x2="1.87857" y2="-0.5" transform="matrix(-0.610073 0.792345 -0.887917 -0.460003 19.2416 276.041)" stroke="#E7E7E7"/>
<line y1="-0.5" x2="1.87857" y2="-0.5" transform="matrix(-0.610073 -0.792345 -0.887917 0.460003 51.809 277.53)" stroke="#E7E7E7"/>
<line y1="-0.5" x2="33.7136" y2="-0.5" transform="matrix(0.999997 -0.00231716 0.00344377 0.999994 18.0955 277.608)" stroke="#E7E7E7"/>
<line x1="19.2416" y1="275.62" x2="50.7584" y2="275.62" stroke="#E7E7E7"/>
<path d="M19.2416 276.12L20.3168 277.53H18.1663L19.2416 276.12Z" fill="#E7E7E7"/>
<path d="M50.7584 276.041L51.8337 277.452H49.6832L50.7584 276.041Z" fill="#E7E7E7"/>
<rect x="19.2416" y="276.12" width="31.5169" height="1.41014" fill="#E7E7E7"/>
<line x1="28.0009" y1="275.5" x2="50.6638" y2="275.54" stroke="#C7C2C2"/>
<path d="M34.559 257.84V259.852C34.559 259.872 34.5426 259.888 34.5225 259.888C34.5023 259.888 34.486 259.872 34.486 259.852V257.84C34.486 257.819 34.5023 257.803 34.5225 257.803C34.5426 257.803 34.559 257.819 34.559 257.84Z" fill="#DBDADA" stroke="#919191" stroke-width="0.5"/>
<rect x="140.472" y="245.097" width="2.00562" height="30.9447" fill="#E7E7E7"/>
<rect x="126.242" y="244" width="1.43258" height="32.1198" fill="#E7E7E7"/>
<rect x="156.326" y="244" width="1.43258" height="32.1198" fill="#E7E7E7"/>
<rect x="126.242" y="275.023" width="31.5169" height="1.09677" fill="#E7E7E7"/>
<rect x="126.242" y="244" width="31.5169" height="1.09677" fill="#E7E7E7"/>
<line y1="-0.5" x2="1.87857" y2="-0.5" transform="matrix(-0.610073 0.792345 -0.887917 -0.460003 126.242 276.041)" stroke="#E7E7E7"/>
<line y1="-0.5" x2="1.87857" y2="-0.5" transform="matrix(-0.610073 -0.792345 -0.887917 0.460003 158.809 277.53)" stroke="#E7E7E7"/>
<line y1="-0.5" x2="33.7136" y2="-0.5" transform="matrix(0.999997 -0.00231716 0.00344377 0.999994 125.096 277.608)" stroke="#E7E7E7"/>
<line x1="126.242" y1="275.62" x2="157.758" y2="275.62" stroke="#E7E7E7"/>
<path d="M126.242 276.12L127.317 277.53H125.166L126.242 276.12Z" fill="#E7E7E7"/>
<path d="M157.758 276.041L158.834 277.452H156.683L157.758 276.041Z" fill="#E7E7E7"/>
<rect x="126.242" y="276.12" width="31.5169" height="1.41014" fill="#E7E7E7"/>
<line y1="-0.5" x2="31.4215" y2="-0.5" transform="matrix(0.999997 0.00243405 -0.00361749 0.999993 126.242 275.963)" stroke="#C7C2C2"/>
<path d="M141.559 257.84V259.852C141.559 259.872 141.543 259.888 141.522 259.888C141.502 259.888 141.486 259.872 141.486 259.852V257.84C141.486 257.819 141.502 257.803 141.522 257.803C141.543 257.803 141.559 257.819 141.559 257.84Z" fill="#DBDADA" stroke="#919191" stroke-width="0.5"/>
<rect x="75" y="301" width="12" height="30" fill="#9A8D8D"/>
<rect x="28" y="301" width="6" height="30" fill="#9A8D8D"/>
<rect x="89" y="301" width="14" height="30" fill="#9A8D8D"/>
<rect x="142" y="301" width="14" height="30" fill="#9A8D8D"/>
<rect x="127" y="301" width="14" height="30" fill="#9A8D8D"/>
<rect x="35" y="301" width="14" height="30" fill="#9A8D8D"/>
<rect x="87.4719" y="301.097" width="2.00562" height="30.9447" fill="#E7E7E7"/>
<rect x="73.2416" y="300" width="1.43258" height="32.1198" fill="#E7E7E7"/>
<rect x="103.326" y="300" width="1.43258" height="32.1198" fill="#E7E7E7"/>
<rect x="73.2416" y="331.023" width="31.5169" height="1.09677" fill="#E7E7E7"/>
<rect x="73.2416" y="300" width="31.5169" height="1.09677" fill="#E7E7E7"/>
<line y1="-0.5" x2="1.87857" y2="-0.5" transform="matrix(-0.610073 0.792345 -0.887917 -0.460003 73.2416 332.041)" stroke="#E7E7E7"/>
<line y1="-0.5" x2="1.87857" y2="-0.5" transform="matrix(-0.610073 -0.792345 -0.887917 0.460003 105.809 333.53)" stroke="#E7E7E7"/>
<line y1="-0.5" x2="33.7136" y2="-0.5" transform="matrix(0.999997 -0.00231716 0.00344377 0.999994 72.0955 333.608)" stroke="#E7E7E7"/>
<line x1="73.2416" y1="331.62" x2="104.758" y2="331.62" stroke="#E7E7E7"/>
<path d="M73.2416 332.12L74.3168 333.53H72.1663L73.2416 332.12Z" fill="#E7E7E7"/>
<path d="M104.758 332.041L105.834 333.452H103.683L104.758 332.041Z" fill="#E7E7E7"/>
<rect x="73.2416" y="332.12" width="31.5169" height="1.41014" fill="#E7E7E7"/>
<line y1="-0.5" x2="31.4215" y2="-0.5" transform="matrix(0.999997 0.00243405 -0.00361749 0.999993 73.2416 331.963)" stroke="#C7C2C2"/>
<path d="M88.559 313.84V315.852C88.559 315.872 88.5426 315.888 88.5225 315.888C88.5023 315.888 88.486 315.872 88.486 315.852V313.84C88.486 313.819 88.5023 313.803 88.5225 313.803C88.5426 313.803 88.559 313.819 88.559 313.84Z" fill="#DBDADA" stroke="#919191" stroke-width="0.5"/>
<rect x="33.4719" y="301.097" width="2.00562" height="30.9447" fill="#E7E7E7"/>
<rect x="19.2416" y="300" width="1.43258" height="32.1198" fill="#E7E7E7"/>
<rect x="49.3258" y="300" width="1.43258" height="32.1198" fill="#E7E7E7"/>
<rect x="19.2416" y="331.023" width="31.5169" height="1.09677" fill="#E7E7E7"/>
<rect x="19.2416" y="300" width="31.5169" height="1.09677" fill="#E7E7E7"/>
<line y1="-0.5" x2="1.87857" y2="-0.5" transform="matrix(-0.610073 0.792345 -0.887917 -0.460003 19.2416 332.041)" stroke="#E7E7E7"/>
<line y1="-0.5" x2="1.87857" y2="-0.5" transform="matrix(-0.610073 -0.792345 -0.887917 0.460003 51.809 333.53)" stroke="#E7E7E7"/>
<line y1="-0.5" x2="33.7136" y2="-0.5" transform="matrix(0.999997 -0.00231716 0.00344377 0.999994 18.0955 333.608)" stroke="#E7E7E7"/>
<line x1="19.2416" y1="331.62" x2="50.7584" y2="331.62" stroke="#E7E7E7"/>
<path d="M19.2416 332.12L20.3168 333.53H18.1663L19.2416 332.12Z" fill="#E7E7E7"/>
<path d="M50.7584 332.041L51.8337 333.452H49.6832L50.7584 332.041Z" fill="#E7E7E7"/>
<rect x="19.2416" y="332.12" width="31.5169" height="1.41014" fill="#E7E7E7"/>
<line x1="28.0009" y1="331.5" x2="50.6638" y2="331.54" stroke="#C7C2C2"/>
<path d="M34.559 313.84V315.852C34.559 315.872 34.5426 315.888 34.5225 315.888C34.5023 315.888 34.486 315.872 34.486 315.852V313.84C34.486 313.819 34.5023 313.803 34.5225 313.803C34.5426 313.803 34.559 313.819 34.559 313.84Z" fill="#DBDADA" stroke="#919191" stroke-width="0.5"/>
<rect x="140.472" y="301.097" width="2.00562" height="30.9447" fill="#E7E7E7"/>
<rect x="126.242" y="300" width="1.43258" height="32.1198" fill="#E7E7E7"/>
<rect x="156.326" y="300" width="1.43258" height="32.1198" fill="#E7E7E7"/>
<rect x="126.242" y="331.023" width="31.5169" height="1.09677" fill="#E7E7E7"/>
<rect x="126.242" y="300" width="31.5169" height="1.09677" fill="#E7E7E7"/>
<line y1="-0.5" x2="1.87857" y2="-0.5" transform="matrix(-0.610073 0.792345 -0.887917 -0.460003 126.242 332.041)" stroke="#E7E7E7"/>
<line y1="-0.5" x2="1.87857" y2="-0.5" transform="matrix(-0.610073 -0.792345 -0.887917 0.460003 158.809 333.53)" stroke="#E7E7E7"/>
<line y1="-0.5" x2="33.7136" y2="-0.5" transform="matrix(0.999997 -0.00231716 0.00344377 0.999994 125.096 333.608)" stroke="#E7E7E7"/>
<line x1="126.242" y1="331.62" x2="157.758" y2="331.62" stroke="#E7E7E7"/>
<path d="M126.242 332.12L127.317 333.53H125.166L126.242 332.12Z" fill="#E7E7E7"/>
<path d="M157.758 332.041L158.834 333.452H156.683L157.758 332.041Z" fill="#E7E7E7"/>
<rect x="126.242" y="332.12" width="31.5169" height="1.41014" fill="#E7E7E7"/>
<line y1="-0.5" x2="31.4215" y2="-0.5" transform="matrix(0.999997 0.00243405 -0.00361749 0.999993 126.242 331.963)" stroke="#C7C2C2"/>
<path d="M141.559 313.84V315.852C141.559 315.872 141.543 315.888 141.522 315.888C141.502 315.888 141.486 315.872 141.486 315.852V313.84C141.486 313.819 141.502 313.803 141.522 313.803C141.543 313.803 141.559 313.819 141.559 313.84Z" fill="#DBDADA" stroke="#919191" stroke-width="0.5"/>
<rect x="76" y="356" width="12" height="30" fill="#9A8D8D"/>
<rect x="29" y="356" width="6" height="30" fill="#9A8D8D"/>
<rect x="90" y="356" width="14" height="30" fill="#9A8D8D"/>
<rect x="143" y="356" width="14" height="30" fill="#9A8D8D"/>
<rect x="128" y="356" width="14" height="30" fill="#9A8D8D"/>
<rect x="36" y="356" width="14" height="30" fill="#9A8D8D"/>
<rect x="88.4719" y="356.097" width="2.00562" height="30.9447" fill="#E7E7E7"/>
<rect x="74.2416" y="355" width="1.43258" height="32.1198" fill="#E7E7E7"/>
<rect x="104.326" y="355" width="1.43258" height="32.1198" fill="#E7E7E7"/>
<rect x="74.2416" y="386.023" width="31.5169" height="1.09677" fill="#E7E7E7"/>
<rect x="74.2416" y="355" width="31.5169" height="1.09677" fill="#E7E7E7"/>
<line y1="-0.5" x2="1.87857" y2="-0.5" transform="matrix(-0.610073 0.792345 -0.887917 -0.460003 74.2416 387.041)" stroke="#E7E7E7"/>
<line y1="-0.5" x2="1.87857" y2="-0.5" transform="matrix(-0.610073 -0.792345 -0.887917 0.460003 106.809 388.53)" stroke="#E7E7E7"/>
<line y1="-0.5" x2="33.7136" y2="-0.5" transform="matrix(0.999997 -0.00231716 0.00344377 0.999994 73.0955 388.608)" stroke="#E7E7E7"/>
<line x1="74.2416" y1="386.62" x2="105.758" y2="386.62" stroke="#E7E7E7"/>
<path d="M74.2416 387.12L75.3168 388.53H73.1663L74.2416 387.12Z" fill="#E7E7E7"/>
<path d="M105.758 387.041L106.834 388.452H104.683L105.758 387.041Z" fill="#E7E7E7"/>
<rect x="74.2416" y="387.12" width="31.5169" height="1.41014" fill="#E7E7E7"/>
<line y1="-0.5" x2="31.4215" y2="-0.5" transform="matrix(0.999997 0.00243405 -0.00361749 0.999993 74.2416 386.963)" stroke="#C7C2C2"/>
<path d="M89.559 368.84V370.852C89.559 370.872 89.5426 370.888 89.5225 370.888C89.5023 370.888 89.486 370.872 89.486 370.852V368.84C89.486 368.819 89.5023 368.803 89.5225 368.803C89.5426 368.803 89.559 368.819 89.559 368.84Z" fill="#DBDADA" stroke="#919191" stroke-width="0.5"/>
<rect x="34.4719" y="356.097" width="2.00562" height="30.9447" fill="#E7E7E7"/>
<rect x="20.2416" y="355" width="1.43258" height="32.1198" fill="#E7E7E7"/>
<rect x="50.3258" y="355" width="1.43258" height="32.1198" fill="#E7E7E7"/>
<rect x="20.2416" y="386.023" width="31.5169" height="1.09677" fill="#E7E7E7"/>
<rect x="20.2416" y="355" width="31.5169" height="1.09677" fill="#E7E7E7"/>
<line y1="-0.5" x2="1.87857" y2="-0.5" transform="matrix(-0.610073 0.792345 -0.887917 -0.460003 20.2416 387.041)" stroke="#E7E7E7"/>
<line y1="-0.5" x2="1.87857" y2="-0.5" transform="matrix(-0.610073 -0.792345 -0.887917 0.460003 52.809 388.53)" stroke="#E7E7E7"/>
<line y1="-0.5" x2="33.7136" y2="-0.5" transform="matrix(0.999997 -0.00231716 0.00344377 0.999994 19.0955 388.608)" stroke="#E7E7E7"/>
<line x1="20.2416" y1="386.62" x2="51.7584" y2="386.62" stroke="#E7E7E7"/>
<path d="M20.2416 387.12L21.3168 388.53H19.1663L20.2416 387.12Z" fill="#E7E7E7"/>
<path d="M51.7584 387.041L52.8337 388.452H50.6832L51.7584 387.041Z" fill="#E7E7E7"/>
<rect x="20.2416" y="387.12" width="31.5169" height="1.41014" fill="#E7E7E7"/>
<line x1="29.0009" y1="386.5" x2="51.6638" y2="386.54" stroke="#C7C2C2"/>
<path d="M35.559 368.84V370.852C35.559 370.872 35.5426 370.888 35.5225 370.888C35.5023 370.888 35.486 370.872 35.486 370.852V368.84C35.486 368.819 35.5023 368.803 35.5225 368.803C35.5426 368.803 35.559 368.819 35.559 368.84Z" fill="#DBDADA" stroke="#919191" stroke-width="0.5"/>
<rect x="141.472" y="356.097" width="2.00562" height="30.9447" fill="#E7E7E7"/>
<rect x="127.242" y="355" width="1.43258" height="32.1198" fill="#E7E7E7"/>
<rect x="157.326" y="355" width="1.43258" height="32.1198" fill="#E7E7E7"/>
<rect x="127.242" y="386.023" width="31.5169" height="1.09677" fill="#E7E7E7"/>
<rect x="127.242" y="355" width="31.5169" height="1.09677" fill="#E7E7E7"/>
<line y1="-0.5" x2="1.87857" y2="-0.5" transform="matrix(-0.610073 0.792345 -0.887917 -0.460003 127.242 387.041)" stroke="#E7E7E7"/>
<line y1="-0.5" x2="1.87857" y2="-0.5" transform="matrix(-0.610073 -0.792345 -0.887917 0.460003 159.809 388.53)" stroke="#E7E7E7"/>
<line y1="-0.5" x2="33.7136" y2="-0.5" transform="matrix(0.999997 -0.00231716 0.00344377 0.999994 126.096 388.608)" stroke="#E7E7E7"/>
<line x1="127.242" y1="386.62" x2="158.758" y2="386.62" stroke="#E7E7E7"/>
<path d="M127.242 387.12L128.317 388.53H126.166L127.242 387.12Z" fill="#E7E7E7"/>
<path d="M158.758 387.041L159.834 388.452H157.683L158.758 387.041Z" fill="#E7E7E7"/>
<rect x="127.242" y="387.12" width="31.5169" height="1.41014" fill="#E7E7E7"/>
<line y1="-0.5" x2="31.4215" y2="-0.5" transform="matrix(0.999997 0.00243405 -0.00361749 0.999993 127.242 386.963)" stroke="#C7C2C2"/>
<path d="M142.559 368.84V370.852C142.559 370.872 142.543 370.888 142.522 370.888C142.502 370.888 142.486 370.872 142.486 370.852V368.84C142.486 368.819 142.502 368.803 142.522 368.803C142.543 368.803 142.559 368.819 142.559 368.84Z" fill="#DBDADA" stroke="#919191" stroke-width="0.5"/>
</svg>
